<?xml version="1.0" standalone="no"?>
<!DOCTYPE svg PUBLIC "-//W3C//DTD SVG 20010904//EN"
 "http://www.w3.org/TR/2001/REC-SVG-20010904/DTD/svg10.dtd">
<svg version="1.0" xmlns="http://www.w3.org/2000/svg"
 width="700.000000pt" height="700.000000pt" viewBox="0 0 700.000000 700.000000"
 preserveAspectRatio="xMidYMid meet">
<metadata>
Created by potrace 1.11, written by Peter Selinger 2001-2013
</metadata>
<g transform="translate(0.000000,700.000000) scale(0.100000,-0.100000)"
fill="#000000" stroke="none">
<path d="M3105 6824 c-214 -96 -397 -178 -405 -181 -8 -3 -37 -16 -65 -28 -27
-13 -93 -42 -145 -65 -52 -23 -113 -50 -135 -60 -120 -54 -633 -283 -650 -290
-11 -4 -51 -22 -90 -40 -38 -18 -149 -67 -245 -110 -181 -80 -605 -268 -675
-300 -146 -66 -167 -78 -154 -86 16 -10 16 -10 174 -94 66 -34 147 -77 180
-95 33 -18 105 -56 160 -85 55 -29 114 -61 130 -70 17 -10 80 -44 140 -75 61
-32 169 -90 240 -128 72 -38 168 -90 215 -115 47 -24 117 -61 155 -82 39 -21
104 -55 145 -77 143 -77 375 -200 455 -243 44 -23 118 -63 165 -87 84 -45 178
-95 295 -158 33 -18 101 -54 150 -80 50 -26 113 -60 140 -75 28 -15 87 -47
133 -70 l82 -44 58 31 c31 17 131 70 222 118 91 48 188 100 215 115 28 15 100
53 160 85 61 32 139 73 175 93 36 19 99 53 140 75 41 22 98 52 125 67 28 15
95 51 150 80 55 29 127 67 160 85 33 18 110 58 170 90 61 32 145 78 189 102
43 24 80 43 82 43 2 0 52 26 111 59 146 79 241 129 348 186 50 26 122 65 160
85 91 49 195 104 320 170 124 65 187 102 183 105 -3 3 -85 40 -243 110 -16 8
-57 26 -90 40 -33 15 -118 53 -190 85 -71 32 -152 68 -180 80 -27 12 -63 28
-80 35 -16 8 -65 30 -108 49 -42 20 -79 36 -82 36 -3 0 -33 13 -67 29 -35 16
-110 50 -168 76 -58 26 -123 55 -145 65 -22 10 -148 66 -280 125 -132 58 -258
115 -280 125 -22 10 -204 91 -405 180 -201 89 -383 170 -405 180 -22 10 -86
39 -143 64 -56 25 -103 46 -105 45 -1 0 -177 -79 -392 -175z"/>
<path d="M70 3656 l0 -1454 27 -17 c16 -10 144 -100 287 -199 142 -100 301
-210 352 -246 51 -36 128 -89 171 -119 43 -30 247 -172 453 -316 206 -144 501
-350 655 -458 154 -107 331 -231 393 -274 168 -117 305 -213 327 -229 63 -45
382 -267 395 -274 14 -7 16 170 15 1697 l0 1705 -55 30 c-30 16 -102 54 -160
85 -58 31 -132 70 -165 88 -33 18 -98 52 -145 77 -111 59 -379 202 -455 243
-33 18 -100 54 -150 80 -49 26 -121 65 -160 85 -38 21 -110 59 -160 85 -49 26
-112 60 -140 75 -27 15 -90 48 -140 75 -49 26 -117 62 -150 80 -33 18 -96 51
-140 75 -44 23 -111 59 -150 80 -38 21 -108 58 -155 83 -105 55 -216 114 -317
169 -43 22 -112 59 -153 81 -178 93 -246 130 -254 138 -6 5 -14 9 -18 9 -4 0
-8 -654 -8 -1454z"/>
<path d="M6840 5064 c-47 -25 -141 -75 -210 -111 -69 -36 -129 -69 -135 -73
-5 -4 -68 -38 -140 -75 -71 -37 -134 -71 -140 -75 -5 -4 -68 -38 -140 -75 -71
-37 -186 -98 -255 -135 -69 -37 -174 -93 -235 -125 -60 -32 -132 -70 -160 -85
-27 -15 -90 -49 -140 -75 -49 -27 -139 -74 -198 -107 -59 -32 -109 -58 -111
-58 -3 0 -35 -17 -73 -38 -37 -21 -131 -72 -208 -112 -77 -40 -144 -76 -150
-80 -5 -4 -64 -35 -130 -70 -66 -34 -142 -75 -170 -90 -27 -15 -104 -56 -170
-90 -66 -35 -142 -76 -170 -91 l-50 -28 0 -1734 c0 -955 2 -1734 5 -1733 5 3
263 156 673 398 122 72 276 164 342 203 66 39 199 118 295 174 96 57 187 112
202 122 15 10 29 19 32 19 2 0 41 23 86 50 45 28 83 50 85 50 2 0 40 22 84 50
44 27 83 50 86 50 3 0 18 8 33 19 15 10 117 72 227 137 205 121 508 300 650
384 129 77 147 88 208 122 32 18 60 42 62 53 3 11 4 752 3 1647 l-3 1627 -85
-45z"/>
</g>
</svg>
