<?xml version="1.0" encoding="UTF-8" standalone="no"?>
<!DOCTYPE svg PUBLIC "-//W3C//DTD SVG 1.1//EN" "http://www.w3.org/Graphics/SVG/1.1/DTD/svg11.dtd">
<svg width="100%" height="100%" viewBox="0 0 99 101" version="1.1" xmlns="http://www.w3.org/2000/svg" xmlns:xlink="http://www.w3.org/1999/xlink" xml:space="preserve" xmlns:serif="http://www.serif.com/" style="fill-rule:evenodd;clip-rule:evenodd;stroke-linejoin:round;stroke-miterlimit:1.41421;">
    <g transform="matrix(1,0,0,1,9.64344,24.2533)">
        <path d="M28.131,39.682C28.842,39.682 29.418,40.258 29.418,40.969C29.418,41.679 28.842,42.256 28.131,42.256C27.421,42.256 26.845,41.679 26.845,40.969C26.845,40.258 27.421,39.682 28.131,39.682Z" style="fill-rule:nonzero;"/>
    </g>
    <g transform="matrix(1,0,0,1,9.64344,24.2533)">
        <path d="M59.332,35.868C59.332,33.689 60.723,31.922 58.544,31.922L56.702,31.922C54.523,31.922 52.755,33.689 52.755,35.868L50.911,39.407C49.876,38.374 48.469,37.469 46.779,36.611C46.783,36.591 46.784,36.572 46.788,36.551C44.59,36.476 45.504,35.795 46.888,35.819C47.417,32.418 48.603,29.652 44.688,30.252C41.311,30.767 35.314,32.314 32.15,34.714C28.437,35.366 20.226,39.64 20.226,43.794C20.226,44.132 24.93,50.608 31.439,51.957C34.054,54.934 41.257,56.845 45.084,57.43C49.422,58.094 47.502,54.629 47.148,50.748C45.063,51.455 46,50.366 47.264,49.934C48.215,49.422 49.07,48.957 49.809,48.485L52.711,54.048C52.711,56.225 54.478,57.992 56.657,57.992L58.498,57.992C60.678,57.992 59.287,56.224 59.287,54.048L58.103,47.996C58.103,46.783 57.91,45.709 57.372,44.986C57.945,44.262 58.147,43.164 58.147,41.914L59.332,35.868ZM27.856,42.941C26.767,42.941 25.883,42.059 25.883,40.969C25.883,39.879 26.768,38.996 27.856,38.996C28.948,38.996 29.829,39.88 29.829,40.969C29.83,42.059 28.948,42.941 27.856,42.941Z" style="fill-rule:nonzero;"/>
    </g>
    <g transform="matrix(1,0,0,1,9.64344,24.2533)">
        <path d="M62.031,4.617L61.53,4.285L18.47,4.285L17.97,4.617C6.718,12.059 0,24.536 0,37.999C0,54.753 10.573,69.861 26.309,75.594L26.641,75.715L53.359,75.715L53.692,75.594C69.427,69.861 80,54.753 80,37.999C80,24.536 73.282,12.059 62.031,4.617ZM19.681,8.286L60.318,8.286C64.567,11.197 68.072,14.918 70.684,19.165C68.097,21.081 59.851,25.76 48.405,18.374C40.132,13.037 36.011,16.876 33.284,19.416C32.097,20.526 31.06,21.481 30.116,21.379C29.262,21.285 28.22,20.353 27.019,18.61C24.929,15.573 22.36,13.899 19.386,13.626C16.53,13.362 13.818,14.457 11.76,15.671C13.984,12.864 16.642,10.368 19.681,8.286ZM52.649,71.715L27.352,71.715C13.368,66.466 4,52.962 4,37.999C4,31.386 5.804,25.036 9.088,19.544L9.245,19.701C9.294,19.652 14.16,14.867 19.236,15.332C21.677,15.557 23.821,16.986 25.606,19.58C27.147,21.815 28.519,22.928 29.93,23.081C31.66,23.27 33.018,22.007 34.453,20.671C37.204,18.108 40.325,15.201 47.475,19.815C52.404,22.996 56.833,24.059 60.559,24.059C65.859,24.059 69.714,21.907 71.537,20.631C74.424,25.869 76.001,31.818 76.001,38C76,52.963 66.632,66.466 52.649,71.715Z" style="fill-rule:nonzero;"/>
    </g>
    <g transform="matrix(1,0,0,1,9.64344,24.2533)">
        <path d="M15.839,38.254C14.877,38.254 14.096,39.038 14.096,40.001C14.096,40.962 14.877,41.746 15.839,41.746C16.804,41.746 17.585,40.962 17.585,40.001C17.585,39.038 16.804,38.254 15.839,38.254ZM15.839,41.174C15.193,41.174 14.667,40.648 14.667,40C14.667,39.354 15.195,38.826 15.839,38.826C16.487,38.826 17.014,39.354 17.014,40C17.014,40.648 16.487,41.174 15.839,41.174Z" style="fill-rule:nonzero;"/>
    </g>
    <g transform="matrix(1,0,0,1,9.64344,24.2533)">
        <path d="M14.666,27.5C14.666,26.538 13.883,25.754 12.92,25.754C11.958,25.754 11.174,26.538 11.174,27.5C11.174,28.463 11.958,29.246 12.92,29.246C13.883,29.246 14.666,28.463 14.666,27.5ZM12.92,28.674C12.273,28.674 11.746,28.147 11.746,27.5C11.746,26.853 12.273,26.326 12.92,26.326C13.568,26.326 14.094,26.853 14.094,27.5C14.094,28.147 13.569,28.674 12.92,28.674Z" style="fill-rule:nonzero;"/>
    </g>
    <g transform="matrix(1,0,0,1,9.64344,24.2533)">
        <path d="M21.382,33.238C21.382,31.842 20.247,30.707 18.851,30.707C17.453,30.707 16.318,31.842 16.318,33.238C16.318,34.636 17.453,35.771 18.851,35.771C20.247,35.771 21.382,34.636 21.382,33.238ZM18.851,35.2C17.77,35.2 16.889,34.32 16.889,33.238C16.889,32.156 17.769,31.278 18.851,31.278C19.933,31.278 20.811,32.156 20.811,33.238C20.811,34.32 19.933,35.2 18.851,35.2Z" style="fill-rule:nonzero;"/>
    </g>
</svg>
