<?xml version="1.0" encoding="UTF-8" standalone="no"?>
<!DOCTYPE svg PUBLIC "-//W3C//DTD SVG 1.1//EN" "http://www.w3.org/Graphics/SVG/1.1/DTD/svg11.dtd">
<svg width="100%" height="100%" viewBox="0 0 99 101" version="1.1" xmlns="http://www.w3.org/2000/svg" xmlns:xlink="http://www.w3.org/1999/xlink" xml:space="preserve" xmlns:serif="http://www.serif.com/" style="fill-rule:evenodd;clip-rule:evenodd;stroke-linejoin:round;stroke-miterlimit:1.41421;">
    <g transform="matrix(0.0889627,0,0,0.0889627,35.4698,49.9822)">
        <g transform="matrix(1,0,0,1,0.964572,-9.08862)">
            <path d="M172.89,318.909C106.185,318.909 51.338,328.924 44.901,341.756L44.267,341.756L51.634,384.588L56.81,386.607L78.144,536.715C77.703,537.459 76.759,554.731 76.759,555.498C76.759,566.153 120.522,574.791 174.508,574.791C228.494,574.791 272.257,566.153 272.257,555.498C272.257,554.166 270.56,538.651 269.258,537.395L287.294,390.151L293.422,386.68L300.682,341.397L300.862,341.756C294.424,328.925 239.594,318.909 172.89,318.909Z" style="fill-rule:nonzero;"/>
            <g transform="matrix(0.416405,0,0,0.416405,-20.1448,29.8428)">
                <path d="M770,752.094C770,785.232 633.895,812.094 466,812.094C298.105,812.094 162,785.232 162,752.094C162,718.957 298.105,692.094 466,692.094C633.895,692.094 770,718.957 770,752.094Z" style="fill-rule:nonzero;"/>
            </g>
            <g transform="matrix(0.336241,0,0,0.336241,18.2268,91.1487)">
                <path d="M770,752.094C770,785.232 633.895,812.094 466,812.094C298.105,812.094 162,785.232 162,752.094C162,718.957 298.105,692.094 466,692.094C633.895,692.094 770,718.957 770,752.094Z" style="fill-rule:nonzero;"/>
            </g>
            <g transform="matrix(0.507702,0,0,0.507702,1358.51,225.919)">
                <path d="M-2220.46,-546.44C-2204.98,-518.48 -2204.06,-485.414 -2216.47,-456.014C-2238.9,-392.432 -2290.76,-337.178 -2287.24,-266.141C-2261.99,-207.57 -2226.2,-170.104 -2239.4,-104.179C-2265.89,-1.633 -2347.05,80.276 -2357.55,188.017C-2364.5,215.294 -2347.19,263.629 -2336.39,272.755C-2343.45,191.11 -2298.67,118.173 -2261.34,49.237C-2226.75,-11.343 -2188.69,-85.167 -2207.08,-155.315C-2219.85,-229.238 -2283.8,-257.77 -2238.84,-349.873C-2212.29,-396.236 -2183.17,-449.636 -2198.27,-504.74C-2202.48,-520.057 -2210.32,-534.252 -2220.46,-546.44Z" style="fill-rule:nonzero;"/>
                <path d="M-2220.47,-546.451C-2209.12,-525.945 -2205.61,-502.676 -2209.44,-480.139C-2205.04,-493.367 -2203.22,-507.172 -2204.16,-520.764C-2208.42,-529.99 -2213.97,-538.64 -2220.47,-546.451ZM-2196.94,-446.42C-2205.4,-418.074 -2220.49,-390.962 -2234.84,-365.889C-2242.25,-350.713 -2246.7,-337.256 -2248.91,-325.045C-2246.46,-332.8 -2243.15,-341.062 -2238.84,-349.889C-2221.81,-379.64 -2203.73,-412.282 -2196.94,-446.42ZM-2280.53,-317.732C-2285.42,-301.289 -2288.15,-284.231 -2287.25,-266.139C-2262.62,-209.025 -2228,-171.977 -2238.53,-109.045C-2237.43,-112.736 -2236.37,-116.426 -2235.41,-120.17C-2222.2,-186.094 -2257.99,-223.567 -2283.25,-282.139C-2283.86,-294.438 -2282.8,-306.254 -2280.53,-317.732ZM-2206.78,-77.076C-2217.87,-38.151 -2238.13,-0.416 -2257.34,33.236C-2284.55,83.471 -2315.7,135.837 -2327.88,192.143C-2313.78,141.87 -2285.96,94.682 -2261.34,49.236C-2239.51,10.99 -2216.31,-32.53 -2206.78,-77.076ZM-2348.91,142.58C-2353.03,157.274 -2356.04,172.378 -2357.56,188.018C-2364.51,215.295 -2347.2,263.642 -2336.41,272.768C-2337.04,265.443 -2337.25,258.174 -2337.09,250.986C-2347.46,234.849 -2359.57,195.584 -2353.56,172.018C-2352.59,161.994 -2351.01,152.194 -2348.91,142.58Z" style="fill-rule:nonzero;"/>
                <path d="M-2216.47,-544.451C-2200.99,-516.49 -2200.06,-483.413 -2212.47,-454.014C-2234.9,-390.431 -2286.77,-335.175 -2283.25,-264.139C-2257.99,-205.567 -2222.2,-168.094 -2235.41,-102.17C-2261.89,0.376 -2343.06,82.277 -2353.56,190.018C-2360.51,217.295 -2343.2,265.642 -2332.41,274.768C-2332.41,274.747 -2332.41,274.726 -2332.41,274.705C-2343.18,261.912 -2358.1,217.661 -2351.56,192.018C-2341.06,84.277 -2259.89,2.376 -2233.41,-100.17C-2220.2,-166.094 -2255.99,-203.567 -2281.25,-262.139C-2284.77,-333.175 -2232.9,-388.431 -2210.47,-452.014C-2198.29,-480.878 -2198.98,-513.288 -2213.66,-540.92C-2214.57,-542.109 -2215.51,-543.298 -2216.47,-544.451Z" style="fill-rule:nonzero;"/>
                <path d="M-2227.47,-183.357C-2224.97,-135.883 -2218.71,-85.727 -2237.39,-40.607C-2245.83,-25.68 -2258.63,-8.285 -2265.29,4.353C-2253.12,-22.74 -2228.08,-45.105 -2228.21,-76.747C-2222.54,-112.057 -2226.77,-147.865 -2227.47,-183.357Z" style="fill-rule:nonzero;"/>
                <path d="M-2243.82,-7.116C-2270.57,25.455 -2291.32,63.452 -2301.58,104.451C-2297.81,85.322 -2291.72,66.538 -2281.73,49.879C-2272.24,29.018 -2259.22,9.819 -2243.82,-7.116Z" style="fill-rule:nonzero;"/>
                <path d="M-2300.73,76.863C-2315.97,101.447 -2335.21,126.162 -2335.58,156.461C-2336.66,165.603 -2340.59,195.232 -2338.19,170.013C-2337.39,138.963 -2325.55,108.862 -2306.13,84.78C-2304.38,82.642 -2304.34,77.026 -2300.73,76.863Z" style="fill-rule:nonzero;"/>
                <path d="M-2211.48,-146.967C-2209.13,-174.464 -2219.62,-200.431 -2236.45,-221.342C-2249.14,-247.534 -2259.75,-275.917 -2261.16,-305.122C-2259,-286.173 -2255.28,-267.59 -2248.38,-249.781C-2239.84,-224.906 -2221.13,-204.701 -2213.39,-179.687C-2211,-168.99 -2210.05,-157.868 -2211.48,-146.967Z" style="fill-rule:nonzero;"/>
                <path d="M-2228.87,-379.09C-2264.43,-347.612 -2270.7,-296.29 -2266.94,-251.497C-2272.11,-296.221 -2265.42,-348.432 -2228.87,-379.09Z" style="fill-rule:nonzero;"/>
            </g>
            <g transform="matrix(-0.543435,-0.11253,-0.11253,0.543435,-398.192,-7.81096)">
                <path d="M-1154.83,255.793C-1157.61,243.593 -1171.55,214.73 -1187.65,196.079C-1207.24,173.393 -1238.65,147.214 -1276.52,122C-1313.21,97.575 -1341.44,77.476 -1358.64,63.522C-1402.57,27.879 -1428.81,-10.548 -1433.97,-46.805C-1435.86,-60.105 -1434.99,-70.613 -1432.38,-73.775C-1431.75,-74.546 -1431.53,-72.984 -1431.89,-70.305C-1433.45,-58.796 -1429.69,-40.859 -1424.87,-28.568C-1409.89,9.595 -1279.86,32.668 -1217.27,74.09C-1156.47,114.331 -1213.44,158.598 -1188.8,186.633C-1168.05,210.244 -1150.36,241.352 -1150.48,254C-1150.51,257.457 -1150.79,257.883 -1151.37,255.352L-1151.37,255.352L-1151.37,255.352L-1154.83,255.793Z" style="fill-rule:nonzero;"/>
                <path d="M-1420.55,-14.44C-1432.42,-10.746 -1357.58,140.043 -1311.32,179.796C-1261.88,221.289 -1228.98,180 -1199.44,182.142C-1198.42,179.579 -1194.14,184.963 -1192.69,182.726C-1213.89,167.857 -1242.13,141.742 -1270.06,118.428C-1327.56,83.091 -1370.9,36.402 -1414.69,-11.533C-1417.51,-13.891 -1419.43,-14.788 -1420.55,-14.44Z" style="fill-rule:nonzero;"/>
            </g>
            <g transform="matrix(0.487904,0.140395,-0.140395,0.487904,947.16,426.238)">
                <g transform="matrix(1,0,0,1,0,308.268)">
                    <path d="M-1371.06,-852C-1371.52,-852.106 -1371.43,-850.687 -1370.81,-848.531C-1367.77,-837.951 -1367.54,-811.75 -1370.38,-799.563C-1379.19,-761.719 -1482.78,-723.577 -1535.81,-676.156C-1587.33,-630.088 -1543.05,-595.074 -1562.31,-565.406C-1567.62,-557.235 -1572.48,-548.351 -1576.59,-539.688C-1575.73,-538.915 -1574.71,-538.28 -1573.56,-537.813C-1573.28,-537.699 -1573,-537.59 -1572.72,-537.5C-1569.37,-544.151 -1565.74,-550.65 -1562.09,-556.375C-1546.83,-580.335 -1520.98,-609.196 -1488.91,-638.031C-1457.84,-665.963 -1434.13,-688.682 -1419.91,-704.125C-1383.59,-743.57 -1364.22,-783.195 -1364.34,-817.906C-1364.39,-830.64 -1367.93,-849.235 -1370.81,-851.844C-1370.9,-851.923 -1371,-851.985 -1371.06,-852Z" style="fill-rule:nonzero;"/>
                </g>
                <path d="M-1372.51,-477.446C-1360.87,-475.608 -1414.73,-328.741 -1452.67,-285.121C-1493.36,-239.436 -1525.55,-268.85 -1552.95,-262.796C-1554.26,-265.061 -1554.87,-262.242 -1556.54,-264.141C-1538.69,-280.99 -1513.88,-306.294 -1490.88,-331.984C-1441.8,-373 -1412.1,-422.964 -1377.61,-473.917C-1375.29,-476.514 -1373.6,-477.619 -1372.51,-477.446Z" style="fill-rule:nonzero;"/>
            </g>
            <path d="M237.215,-14.866C235.196,-12.152 231.741,-9.994 228.576,-9.469C222.318,-8.433 216.201,-11.702 213.088,-17.746C212.056,-19.748 211.342,-22.527 211.295,-24.722C211.11,-33.293 217.214,-39.913 224.393,-38.926C226.5,-38.636 228.129,-37.891 229.707,-36.496C232.495,-34.029 233.743,-30.565 233.113,-27.038C232.871,-25.687 232.068,-23.659 231.743,-23.579C231.662,-23.559 231.809,-23.982 232.07,-24.519C232.647,-25.708 233.04,-27.623 232.973,-28.924C232.905,-30.253 232.206,-32.518 231.527,-33.605C229.602,-36.604 226.783,-37.027 224.565,-36.08C215.961,-32.405 221.873,-13.757 235.556,-16.131L236.11,-16.876L236.752,-16.468C237.816,-15.791 237.841,-15.707 237.215,-14.866Z" style="fill-rule:nonzero;"/>
            <path d="M237.787,-12.689C235.201,-9.485 230.832,-6.895 226.861,-6.213C219.012,-4.866 211.435,-8.532 207.678,-15.498C206.433,-17.805 205.603,-21.023 205.593,-23.577C205.555,-33.55 213.339,-41.393 222.295,-40.407C224.923,-40.117 226.944,-39.287 228.885,-37.698C232.317,-34.89 233.799,-30.885 232.931,-26.765C232.599,-25.188 231.549,-22.809 231.141,-22.709C231.039,-22.684 231.232,-23.179 231.57,-23.81C232.319,-25.207 232.853,-27.445 232.8,-28.958C232.745,-30.503 231.921,-33.124 231.097,-34.374C228.757,-37.822 225.241,-38.25 222.446,-37.098C211.603,-32.625 218.575,-11.053 235.741,-14.125L236.45,-15.005L237.244,-14.544C238.56,-13.781 238.589,-13.682 237.787,-12.689Z" style="fill-rule:nonzero;"/>
            <path d="M226.079,185.868L221.509,189.803L215.798,196.53C215.798,196.53 217.321,192.214 217.702,191.707C218.082,191.199 221.002,188.153 221.002,188.153L226.079,185.868Z" style="fill-rule:nonzero;"/>
            <g transform="matrix(0.503557,-0.0647422,0.0647422,0.503557,1038.27,82.5005)">
                <path d="M-1618.69,2.156C-1619.74,-11.034 -1630.61,-47.322 -1644.61,-69.298C-1661.63,-96.027 -1690.49,-128.217 -1726.27,-160.386C-1760.93,-191.548 -1787.39,-216.889 -1803.26,-234.118C-1843.78,-278.124 -1865.36,-322.34 -1865.22,-361.064C-1865.17,-375.269 -1861.21,-396.026 -1858,-398.936C-1857.21,-399.646 -1857.22,-397.978 -1858.01,-395.229C-1861.4,-383.426 -1861.65,-354.189 -1858.48,-340.592C-1848.65,-298.373 -1733.09,-255.833 -1673.92,-202.929C-1616.45,-151.534 -1665.86,-112.455 -1644.37,-79.357C-1626.26,-51.482 -1610.04,-15.914 -1612.1,-2.699C-1612.66,0.913 -1615.48,1.001 -1615.7,-1.736L-1615.7,-1.736L-1612.32,-3.084L-1618.69,2.156Z" style="fill-rule:nonzero;"/>
                <path d="M-1856.12,-325.15C-1869.11,-323.099 -1809.02,-159.251 -1766.68,-110.588C-1721.29,-59.62 -1685.38,-92.435 -1654.81,-85.681C-1653.36,-88.207 -1652.67,-85.062 -1650.81,-87.181C-1670.72,-105.978 -1698.4,-134.208 -1724.06,-162.869C-1778.82,-208.627 -1811.95,-264.368 -1850.43,-321.213C-1853.02,-324.11 -1854.9,-325.343 -1856.12,-325.15Z" style="fill-rule:nonzero;"/>
            </g>
            <path d="M211.948,93.619L204.432,97.645L200.485,98.09C200.485,98.09 199.743,95.945 200.355,95.779C202.532,95.191 201.157,96.591 205.615,94.399C210.949,91.776 210.737,92.06 210.737,92.06L211.948,93.619Z" style="fill-rule:nonzero;"/>
            <path d="M163.401,574.357C121.044,573.239 87.144,566.905 79.758,558.729L77.961,556.74L78.302,550.349C78.49,546.834 78.783,541.998 78.953,539.601L79.262,535.244L82.111,537.123C87.819,540.887 97.281,543.723 112.376,546.194C132.294,549.454 147.134,550.444 177.015,550.507L238.1,547.005L221.208,572.023C202.097,574.458 182.65,574.448 163.401,574.357Z" style="fill-rule:nonzero;"/>
            <path d="M183.211,440.158L61.726,419.685L58.354,386.496C67.162,392.011 81.641,395.98 104.668,399.194C135.051,403.433 157.636,404.405 203.042,403.429L287.12,390.889L270.966,434.537C242.015,438.922 212.463,439.606 183.211,440.158L183.211,440.158Z" style="fill-rule:nonzero;"/>
            <path d="M172.001,341.438C171.637,341.624 172.29,341.526 172.001,341.438ZM166.781,346.547C164.802,347.085 163.783,342.829 161.724,342.309C156.781,341.062 150.675,342.006 145.829,342.672C139.213,343.436 132.203,342.689 125.905,345.06C119.42,348.915 111.706,348.62 104.477,349.72C98.305,351.393 87.671,352.563 84.254,354.747C106.219,361.905 129.508,363.556 152.442,364.776C185.16,365.905 218.219,365.04 250.378,358.439C253.373,357.566 263.199,355.797 261.517,354.779C255.083,354.661 248.723,353.087 243.755,348.851C238.185,344.767 233.685,352.72 228.118,351.91C223.045,350.5 221.076,342.145 214.526,345.071C209.237,347.553 203.522,347.296 198.655,344.132C193.906,344.818 188.993,346.31 184.011,345.77C181.232,345.755 177.322,340.746 174.778,341.377C171.565,342.174 169.774,348.492 166.781,346.547ZM172.192,341.66L172.176,341.756L172.192,341.66ZM169.145,342.057L169.161,342.089L169.145,342.057ZM169.32,342.12L169.288,342.152L169.32,342.12ZM157.992,342.39L159.991,342.184L157.992,342.39ZM173.286,342.136L173.223,342.152L173.286,342.136ZM171.303,342.469L171.351,342.501L171.303,342.469ZM169.177,342.581L169.288,342.581L169.177,342.581ZM170.637,342.581L170.605,342.644L170.637,342.581ZM199.814,342.707L199.957,342.707L199.814,342.707ZM170.526,342.771L170.621,342.787L170.526,342.771ZM170.922,342.834C170.342,343.363 171.866,342.933 170.922,342.834ZM105.445,346.674C107.221,349.609 107.317,349.77 105.445,346.674ZM100.526,350.323L100.574,350.339L100.526,350.323ZM99.923,350.545L99.923,350.656L99.923,350.545ZM99.305,350.735L99.305,350.783L99.305,350.735Z" style="fill-rule:nonzero;"/>
            <path d="M144.174,350.982C137.886,348.608 136.38,356.144 143.293,355.582C148.95,359.001 157.238,354.739 149.273,350.497L148.482,350.982" style="fill-rule:nonzero;"/>
            <path d="M173.928,344.469C173.046,346.237 171.063,350.98 175.185,353.788C177.967,355.683 182.648,353.788 184.3,352.022C185.183,346.499 176.99,341.764 173.928,344.469Z" style="fill-rule:nonzero;"/>
            <path d="M218.066,346.115C215.169,349.583 217.655,352.732 220.791,354.475C224.797,356.703 229.864,356.634 226.113,351.999C223.983,349.926 220.719,343.557 218.066,346.115Z" style="fill-rule:nonzero;"/>
            <path d="M206.183,347.751C206.709,346.7 204.777,359.53 197.802,354.975C193.679,351.017 198.929,349.125 201.212,346.507" style="fill-rule:nonzero;"/>
            <path d="M166.432,359.239C159.078,362.668 172.992,365.584 176.715,363.666C181.603,363.889 185.635,362.431 179.49,359.828C177.782,357.017 166.573,356.405 172.561,355.116" style="fill-rule:nonzero;"/>
            <path d="M244.335,354.931C244.36,352.78 243.004,360.071 246.244,356.774C253.839,358.556 246.763,351.149 244.335,354.931Z" style="fill-rule:nonzero;"/>
            <path d="M244.769,350.797C245.294,349.746 243.362,362.576 236.388,358.021C232.264,354.063 237.514,352.171 239.797,349.553" style="fill-rule:nonzero;"/>
        </g>
        <path d="M368.5,136.763C374.537,140.107 316.899,213.629 287.284,230.027C255.747,247.011 242.513,220.871 226.222,218.712C225.958,217.205 223.024,219.648 222.488,218.269C235.683,212.575 253.968,201.561 271.77,192.035C306.993,179.302 335.802,158.807 364.989,137.684C366.785,136.72 367.933,136.449 368.5,136.763Z" style="fill-rule:nonzero;"/>
    </g>
</svg>
