<?xml version="1.0" encoding="UTF-8" standalone="no"?>
<!DOCTYPE svg PUBLIC "-//W3C//DTD SVG 1.1//EN" "http://www.w3.org/Graphics/SVG/1.1/DTD/svg11.dtd">
<svg width="100%" height="100%" viewBox="0 0 99 101" version="1.1" xmlns="http://www.w3.org/2000/svg" xmlns:xlink="http://www.w3.org/1999/xlink" xml:space="preserve" xmlns:serif="http://www.serif.com/" style="fill-rule:evenodd;clip-rule:evenodd;stroke-linejoin:round;stroke-miterlimit:1.41421;">
    <g transform="matrix(0.0276662,0,0,-0.0256409,-11.4658,111.513)">
        <path d="M2436,4178C2395,4115 2395,3984 2436,3924C2449,3905 2460,3887 2460,3885C2460,3883 2439,3872 2413,3859C2345,3827 2307,3783 2314,3745C2321,3708 2363,3670 2397,3670C2434,3670 2486,3698 2519,3736L2549,3769L2565,3712C2574,3681 2590,3631 2601,3602C2611,3573 2620,3544 2620,3539C2620,3527 2591,3530 2503,3551C2461,3561 2448,3561 2436,3551C2414,3532 2415,3448 2438,3422C2463,3392 2527,3387 2591,3410C2651,3432 2655,3430 2665,3363C2668,3338 2678,3301 2685,3280L2698,3242L2617,3238C2527,3233 2474,3212 2461,3177C2453,3156 2453,3157 2435,3184C2425,3199 2406,3216 2393,3221L2369,3230L2399,3261C2436,3297 2439,3331 2408,3360C2388,3378 2375,3380 2308,3378C2253,3375 2226,3369 2212,3357C2202,3348 2189,3340 2185,3340C2180,3340 2202,3366 2234,3399C2298,3464 2312,3507 2291,3573C2277,3613 2257,3622 2210,3606C2180,3597 2169,3583 2129,3504C2084,3414 2083,3413 2059,3426C2024,3446 1996,3443 1973,3418C1950,3393 1920,3337 1920,3320C1920,3300 1984,3250 2022,3239C2064,3228 2064,3230 2035,3110C2027,3080 2018,3033 2014,3007C2008,2959 1988,2947 1982,2987C1977,3021 1916,3080 1886,3080C1855,3080 1810,3040 1810,3013C1810,3003 1819,2976 1829,2953C1847,2913 1852,2911 1909,2899C1986,2884 1994,2875 1978,2817C1968,2779 1964,2774 1952,2786C1929,2810 1888,2802 1853,2768L1821,2737L1799,2764C1779,2789 1772,2792 1731,2788C1657,2780 1615,2757 1574,2700C1554,2672 1534,2652 1530,2657C1520,2668 1509,2863 1518,2876C1527,2888 1568,2907 1648,2936C1740,2969 1780,3002 1780,3046C1780,3121 1734,3153 1672,3121C1636,3103 1582,3053 1540,3000L1520,2975L1525,3050C1536,3219 1542,3265 1551,3275C1556,3280 1560,3276 1560,3263C1560,3228 1575,3227 1644,3259C1707,3289 1754,3335 1781,3393C1798,3430 1772,3470 1729,3470C1687,3470 1654,3445 1603,3376L1559,3317L1566,3361C1573,3415 1599,3514 1616,3556C1632,3594 1668,3604 1742,3590C1799,3579 1799,3579 1829,3635C1857,3689 1856,3707 1819,3729C1781,3752 1750,3744 1701,3700C1683,3683 1667,3670 1665,3670C1657,3670 1707,3767 1745,3826C1799,3909 1819,3922 1891,3923C1947,3923 1953,3925 1985,3962C2029,4010 2029,4032 1986,4066C1937,4106 1914,4105 1849,4065C1784,4025 1780,4024 1780,4047C1780,4056 1771,4083 1760,4106C1722,4183 1632,4179 1615,4100C1609,4072 1641,3990 1658,3990C1662,3990 1680,3977 1698,3962C1731,3934 1742,3888 1719,3874C1713,3871 1686,3822 1659,3767C1632,3712 1608,3665 1606,3662C1603,3660 1596,3676 1590,3698C1565,3794 1470,3832 1409,3771C1348,3710 1383,3650 1497,3623C1537,3613 1571,3601 1573,3595C1575,3590 1564,3538 1548,3480C1532,3422 1516,3362 1511,3345L1504,3315L1487,3350C1452,3420 1402,3460 1348,3460C1309,3460 1297,3453 1281,3423C1245,3354 1316,3260 1405,3260C1417,3260 1435,3251 1445,3240C1455,3229 1470,3220 1478,3220C1490,3220 1491,3207 1485,3138C1481,3092 1476,3046 1474,3035C1473,3024 1471,3011 1471,3006C1470,3001 1453,3016 1433,3039C1401,3073 1387,3081 1345,3086C1298,3092 1292,3090 1262,3062C1238,3039 1230,3024 1230,2997C1230,2950 1245,2937 1332,2911C1372,2898 1419,2882 1436,2875L1467,2862L1473,2754C1477,2695 1478,2644 1475,2642C1472,2639 1460,2646 1447,2657C1388,2710 1300,2746 1270,2730C1247,2718 1235,2655 1250,2621C1268,2577 1308,2560 1392,2560C1470,2560 1490,2551 1490,2515C1490,2504 1496,2470 1504,2440C1511,2410 1521,2368 1524,2348L1531,2312L1478,2326C1394,2348 1328,2345 1302,2317C1275,2288 1274,2245 1300,2203C1327,2158 1372,2151 1479,2178C1526,2189 1567,2197 1571,2194C1574,2192 1585,2162 1595,2128C1604,2093 1626,2039 1642,2006C1658,1974 1669,1946 1666,1943C1663,1940 1614,1937 1556,1937L1452,1937L1406,1894C1362,1854 1360,1849 1360,1799C1360,1755 1367,1735 1399,1681C1432,1625 1441,1599 1455,1510C1473,1388 1509,1212 1520,1190C1524,1182 1531,1155 1534,1130C1538,1105 1545,1067 1551,1045C1557,1023 1570,953 1580,890C1613,680 1658,483 1674,477C1680,475 1773,477 1880,481C1987,485 2098,489 2125,490C2170,491 2239,487 2530,465C2632,457 2667,467 2675,507C2691,585 2774,899 2805,1000C2825,1063 2847,1142 2855,1175C2942,1549 2960,1613 2977,1624C3003,1638 3030,1712 3030,1768C3030,1818 3007,1880 2989,1880C2985,1880 2969,1893 2953,1910C2938,1926 2918,1938 2910,1935C2902,1933 2889,1934 2882,1939C2870,1946 2871,1952 2883,1977C2902,2012 2943,2143 2961,2225L2975,2285L3050,2309C3145,2340 3211,2371 3223,2391C3237,2413 3215,2467 3184,2487C3151,2508 3110,2496 3055,2448C3030,2426 3007,2409 3005,2412C3003,2414 3005,2458 3010,2509C3017,2590 3022,2606 3045,2630C3059,2645 3090,2663 3113,2670C3187,2692 3208,2708 3221,2749C3231,2783 3230,2793 3213,2822C3181,2878 3151,2872 3089,2798C3061,2763 3034,2734 3030,2732C3026,2730 3020,2784 3017,2852C3013,2920 3008,2989 3004,3007L2998,3038L3036,3025C3103,3001 3138,3006 3177,3045C3210,3078 3212,3084 3208,3132C3199,3224 3138,3245 3051,3185C2997,3148 2987,3153 3015,3206C3034,3242 3034,3303 3016,3338C3008,3353 2983,3380 2960,3398C2903,3445 2868,3438 2796,3364C2766,3335 2740,3310 2737,3310C2728,3310 2691,3441 2696,3454C2702,3470 2804,3530 2825,3530C2834,3530 2852,3541 2865,3554C2932,3621 2889,3753 2808,3729C2764,3717 2737,3688 2699,3613C2681,3577 2665,3552 2663,3556C2638,3636 2590,3809 2590,3821C2590,3850 2624,3868 2690,3876C2759,3883 2779,3890 2805,3916C2839,3950 2793,4045 2737,4055C2695,4063 2664,4050 2617,4006C2597,3986 2578,3970 2575,3970C2572,3970 2570,3989 2570,4013C2570,4079 2552,4127 2514,4165C2474,4206 2456,4209 2436,4178ZM2890,3236C2890,3223 2893,3198 2896,3181C2902,3151 2901,3150 2867,3150C2840,3150 2827,3144 2812,3123L2792,3095L2786,3120C2767,3213 2766,3209 2823,3235C2887,3266 2890,3266 2890,3236ZM2256,3220L2317,3208L2316,3170C2316,3141 2325,3119 2353,3078C2383,3034 2390,3014 2390,2977C2390,2936 2387,2930 2369,2930C2295,2930 2195,2863 2202,2818C2208,2771 2298,2749 2377,2775C2398,2782 2399,2779 2402,2693C2405,2604 2403,2580 2391,2597C2388,2602 2374,2614 2360,2623C2314,2655 2252,2640 2201,2585C2185,2568 2168,2560 2143,2560C2107,2560 2030,2515 2011,2482C1998,2461 1997,2469 2000,2545C2002,2624 2010,2631 2082,2617C2184,2598 2250,2639 2236,2714C2221,2791 2143,2797 2063,2726L2017,2685L2023,2765C2027,2809 2035,2862 2041,2882C2051,2920 2051,2920 2076,2903C2096,2890 2106,2889 2120,2898C2130,2904 2155,2911 2176,2915C2267,2929 2300,2942 2306,2965C2312,2991 2277,3068 2254,3077C2228,3087 2150,3049 2104,3005L2060,2963L2060,2997C2060,3048 2109,3213 2128,3228C2137,3235 2156,3239 2170,3237C2184,3234 2223,3227 2256,3220ZM2745,3045C2756,2992 2757,2963 2750,2956C2745,2951 2740,2949 2740,2953C2740,2965 2667,2931 2641,2907L2617,2885L2624,2927C2629,2962 2627,2973 2610,2990C2599,3001 2582,3010 2572,3010C2550,3010 2493,2970 2463,2932L2440,2905L2440,2961C2440,2999 2445,3022 2455,3030C2464,3037 2470,3059 2470,3081C2470,3125 2470,3125 2510,3105C2551,3084 2618,3085 2675,3108C2703,3119 2726,3127 2728,3125C2729,3124 2737,3088 2745,3045ZM2951,2992C2951,2983 2954,2966 2956,2955C2959,2944 2964,2892 2967,2840L2972,2745L2906,2745L2840,2745L2834,2786C2831,2808 2827,2849 2825,2876C2823,2903 2817,2943 2811,2964C2806,2986 2803,3006 2805,3009C2807,3013 2840,3014 2879,3012C2937,3009 2950,3005 2951,2992ZM2791,2698C2802,2578 2801,2545 2786,2418C2763,2227 2766,2234 2728,2265C2712,2279 2688,2290 2674,2290C2652,2290 2650,2294 2650,2334C2650,2361 2644,2382 2635,2390C2613,2408 2554,2396 2497,2360L2447,2329L2455,2402C2458,2442 2466,2478 2472,2481C2478,2485 2510,2491 2544,2495C2601,2501 2608,2505 2653,2552C2689,2591 2700,2610 2700,2635C2700,2690 2666,2716 2599,2711C2581,2710 2493,2624 2475,2590L2463,2568L2457,2591C2453,2604 2450,2658 2450,2711L2450,2808L2516,2823C2579,2837 2583,2837 2601,2819C2627,2793 2676,2795 2725,2824C2747,2836 2768,2844 2771,2841C2775,2838 2784,2774 2791,2698ZM1823,2656C1835,2648 1869,2637 1898,2630L1950,2618L1950,2564C1950,2505 1950,2505 1905,2521C1865,2536 1805,2525 1779,2499C1768,2488 1760,2466 1760,2448C1760,2419 1759,2418 1742,2433C1711,2461 1675,2454 1641,2413C1624,2392 1610,2370 1610,2364C1610,2349 1583,2327 1577,2337C1569,2349 1539,2498 1533,2551L1528,2598L1569,2605C1591,2609 1623,2609 1639,2605C1679,2596 1742,2615 1771,2644C1801,2674 1797,2673 1823,2656ZM2931,2612C2964,2615 2965,2615 2962,2575C2955,2466 2949,2439 2930,2445C2919,2448 2900,2440 2881,2424C2863,2409 2848,2399 2846,2401C2844,2403 2845,2460 2848,2528L2853,2651L2875,2630C2891,2615 2908,2609 2931,2612ZM2405,2413C2405,2379 2402,2348 2398,2345C2394,2341 2379,2347 2364,2359C2332,2384 2312,2385 2266,2364C2229,2346 2207,2310 2217,2283C2228,2254 2273,2222 2310,2215C2373,2204 2376,2199 2355,2130C2345,2097 2326,2055 2313,2038C2300,2020 2290,2001 2290,1996C2290,1990 2281,1974 2272,1962C2254,1939 2248,1938 2130,1939C2054,1940 2001,1945 1993,1952C1983,1960 1980,1986 1982,2053L1985,2142L2083,2144C2191,2145 2210,2155 2210,2209C2210,2273 2127,2291 2044,2245C2019,2231 1995,2220 1989,2220C1984,2220 1980,2248 1981,2288C1983,2400 1979,2395 2074,2396C2162,2398 2211,2414 2230,2450C2238,2465 2253,2470 2303,2473C2412,2479 2405,2483 2405,2413ZM1876,2393L1938,2398L1933,2336C1927,2252 1925,2248 1895,2256C1852,2267 1804,2252 1792,2224C1762,2159 1787,2128 1875,2125L1925,2123L1925,2034L1925,1945L1846,1938C1773,1931 1766,1932 1736,1955C1713,1972 1692,2007 1662,2079C1639,2133 1620,2185 1620,2193C1620,2201 1637,2219 1658,2232C1678,2246 1715,2277 1738,2301C1776,2339 1781,2348 1777,2377C1772,2408 1773,2409 1792,2399C1805,2392 1839,2390 1876,2393ZM2909,2215C2889,2110 2835,1965 2807,1941C2793,1930 2700,1922 2700,1932C2700,1936 2708,1947 2719,1957C2751,1988 2771,2026 2780,2076C2814,2255 2812,2252 2884,2257L2917,2260L2909,2215ZM2584,2161C2593,2151 2626,2137 2658,2130C2732,2113 2743,2104 2728,2076C2722,2065 2714,2053 2710,2050C2707,2047 2687,2017 2666,1982L2628,1918L2581,1924C2556,1928 2487,1931 2428,1933C2368,1934 2320,1936 2320,1937C2320,1938 2329,1959 2340,1982C2350,2006 2371,2057 2385,2095C2433,2226 2421,2212 2505,2226C2554,2235 2555,2235 2561,2207C2565,2192 2575,2171 2584,2161Z" style="fill-rule:nonzero;"/>
    </g>
</svg>
