<?xml version="1.0" encoding="UTF-8" standalone="no"?>
<!DOCTYPE svg PUBLIC "-//W3C//DTD SVG 1.1//EN" "http://www.w3.org/Graphics/SVG/1.1/DTD/svg11.dtd">
<svg width="100%" height="100%" viewBox="0 0 99 101" version="1.1" xmlns="http://www.w3.org/2000/svg" xmlns:xlink="http://www.w3.org/1999/xlink" xml:space="preserve" xmlns:serif="http://www.serif.com/" style="fill-rule:evenodd;clip-rule:evenodd;stroke-linejoin:round;stroke-miterlimit:1.41421;">
    <g transform="matrix(0.0297522,0,0,-0.0297522,-259.824,110.6)">
        <path d="M10821,3312C10815,3302 10813,3285 10815,3274C10818,3264 10833,3198 10850,3128C10882,2992 10886,2932 10867,2887L10855,2860L10820,2904C10783,2951 10721,2997 10681,3007C10667,3010 10645,3007 10631,2999C10595,2978 10584,2942 10599,2887C10617,2825 10656,2798 10748,2785L10820,2775L10775,2710C10750,2674 10722,2633 10712,2618C10703,2602 10692,2590 10689,2590C10686,2590 10678,2609 10671,2632C10633,2757 10507,2764 10479,2642C10468,2590 10496,2507 10541,2463L10573,2431L10548,2393C10488,2300 10472,2271 10454,2215C10444,2182 10435,2127 10435,2094C10435,2039 10440,2026 10475,1974C10497,1941 10517,1912 10518,1908C10520,1903 10499,1900 10472,1900L10422,1900L10422,2023C10422,2260 10400,2358 10338,2398L10302,2422L10341,2457C10401,2511 10421,2551 10423,2619C10425,2669 10421,2683 10403,2701L10381,2724L10335,2700C10283,2673 10264,2649 10231,2570C10218,2540 10201,2505 10193,2493L10178,2470L10141,2497C10120,2513 10081,2545 10054,2568L10005,2612L10037,2638C10085,2679 10127,2709 10197,2754C10258,2792 10282,2877 10250,2940C10239,2961 10222,2980 10213,2982C10187,2988 10126,2955 10084,2913C10044,2874 9970,2727 9970,2689L9970,2665L9950,2690C9882,2777 9889,2904 9965,2986C9994,3017 9997,3035 9974,3044C9942,3056 9933,3048 9894,2973C9858,2903 9855,2891 9857,2824C9858,2774 9866,2738 9881,2706C9893,2680 9901,2658 9899,2656C9897,2655 9866,2645 9830,2635C9756,2614 9676,2566 9662,2536C9634,2473 9714,2420 9805,2440C9832,2446 9859,2455 9865,2459C9870,2464 9899,2475 9927,2484C9956,2494 9982,2506 9985,2511C9998,2532 10032,2516 10108,2455C10153,2419 10196,2380 10204,2368C10219,2347 10227,2270 10215,2270C10212,2270 10178,2286 10140,2306C10102,2326 10060,2343 10046,2343C10010,2343 9976,2317 9956,2277C9930,2220 9935,2186 9978,2141C10022,2095 10084,2080 10145,2100C10165,2107 10183,2110 10186,2107C10190,2103 10151,1921 10144,1911C10142,1909 10112,1906 10077,1903L10013,1899L9991,1957C9945,2077 9880,2135 9741,2181C9658,2208 9599,2203 9500,2161L9428,2131L9414,2166C9400,2200 9400,2200 9332,2200C9189,2200 9076,2159 9002,2083C8953,2032 8950,2025 8960,2004C8989,1952 9101,1951 9216,2002C9241,2013 9264,2019 9267,2017C9270,2014 9254,1988 9233,1958C9174,1879 9126,1799 9113,1760C9093,1701 9083,1571 9089,1455C9092,1395 9094,1321 9092,1291C9089,1242 9087,1238 9067,1244C9042,1250 8986,1227 8910,1178C8844,1135 8805,1095 8790,1056C8781,1031 8782,1022 8798,1001C8838,946 8909,948 8985,1006L9031,1042L9006,993C8960,904 8893,830 8833,803C8795,785 8780,774 8784,763C8787,755 8790,746 8790,744C8790,742 8799,740 8810,740C8841,740 8904,775 8932,808L8957,837L8968,781C8977,737 8991,712 9032,663C9107,576 9119,574 9165,640C9205,697 9202,776 9159,865C9120,944 9108,961 9085,976L9062,991L9097,1088L9133,1185L9131,1413C9130,1568 9133,1640 9140,1635C9145,1632 9150,1622 9150,1614C9150,1585 9199,1503 9239,1467C9278,1432 9324,1411 9337,1423C9346,1432 9352,1620 9345,1658C9338,1695 9233,1810 9206,1810C9197,1810 9190,1816 9190,1823C9190,1836 9288,1976 9325,2018C9361,2056 9534,2138 9597,2146L9653,2152L9614,2113C9563,2062 9521,2002 9513,1971C9508,1952 9513,1941 9533,1924C9556,1905 9557,1900 9545,1892C9527,1883 9510,1792 9510,1708C9510,1661 9514,1649 9532,1636C9544,1627 9562,1620 9571,1620C9601,1620 9618,1580 9612,1518C9610,1487 9617,1396 9629,1313C9654,1133 9664,1062 9689,855C9738,463 9744,439 9795,462C9812,470 9824,468 9843,455C9858,445 9890,438 9917,438C9943,437 9977,431 9991,424C10006,416 10089,407 10191,400C10287,394 10406,385 10455,381C10505,376 10556,373 10570,375C10584,376 10643,380 10703,385C10801,392 10810,394 10810,413C10810,424 10814,449 10819,469C10824,489 10838,550 10849,605C10861,660 10882,759 10896,825C10911,891 10926,961 10930,980C10933,999 10945,1031 10955,1050C10965,1069 10973,1095 10971,1108C10970,1120 10978,1150 10989,1173C11000,1196 11014,1235 11020,1260C11026,1285 11035,1314 11040,1325C11045,1336 11056,1374 11065,1410C11089,1509 11106,1540 11136,1540C11150,1540 11173,1549 11187,1560C11201,1571 11219,1580 11226,1580C11233,1580 11251,1596 11267,1616C11302,1663 11305,1745 11272,1790C11254,1813 11252,1824 11260,1851C11271,1889 11256,1926 11196,2005C11150,2065 11149,2084 11193,2075C11210,2071 11247,2056 11273,2042C11334,2009 11421,1894 11439,1823C11445,1797 11462,1733 11475,1683C11507,1563 11507,1529 11475,1494C11412,1426 11368,1306 11376,1223C11383,1146 11461,1040 11510,1040C11537,1040 11597,1098 11615,1142C11623,1163 11630,1202 11630,1230C11630,1277 11641,1293 11655,1270C11669,1248 11741,1220 11785,1220C11834,1220 11933,1263 11960,1296C11981,1322 12010,1376 12010,1388C12010,1402 11977,1412 11956,1404C11947,1401 11940,1388 11940,1375C11940,1348 11920,1330 11851,1295C11802,1270 11793,1269 11757,1280C11710,1294 11634,1361 11625,1397C11622,1411 11608,1437 11596,1454C11582,1472 11569,1507 11565,1536L11558,1588L11612,1578C11641,1573 11670,1565 11675,1560C11690,1548 11788,1561 11801,1577C11818,1597 11766,1724 11726,1757C11660,1813 11582,1831 11519,1806C11507,1801 11500,1812 11487,1857C11471,1909 11452,1940 11383,2028C11334,2089 11220,2135 11086,2147C11042,2151 11002,2153 10998,2152C10983,2148 10990,2158 11026,2194C11054,2222 11060,2234 11055,2252C11044,2287 11017,2311 10974,2320C10937,2329 10934,2327 10889,2281C10857,2247 10841,2221 10836,2194C10824,2125 10820,2121 10761,2099C10700,2077 10667,2052 10613,1986L10582,1947L10549,1966C10499,1996 10478,2044 10484,2115C10487,2148 10494,2189 10500,2206L10511,2238L10543,2221C10564,2211 10607,2204 10666,2202C10752,2198 10758,2200 10788,2225C10813,2246 10820,2260 10820,2287C10820,2327 10806,2358 10776,2382C10747,2406 10716,2404 10645,2375C10612,2361 10584,2350 10582,2350C10573,2350 10668,2475 10688,2489C10701,2498 10734,2522 10761,2543C10817,2586 10856,2604 10913,2614C10944,2620 10950,2618 10950,2603C10950,2593 10957,2576 10965,2566C10974,2554 10980,2524 10980,2488C10980,2417 10999,2368 11035,2344C11058,2329 11066,2328 11094,2339C11111,2346 11131,2353 11139,2354C11157,2357 11179,2399 11180,2430C11180,2471 11151,2507 11078,2556C11042,2579 11025,2620 11051,2620C11069,2620 11193,2598 11210,2593C11218,2590 11232,2586 11240,2585C11274,2581 11400,2496 11400,2477C11400,2472 11387,2453 11371,2435C11355,2417 11335,2382 11325,2358C11310,2316 11310,2310 11325,2274C11354,2203 11420,2114 11467,2080L11513,2046L11542,2080C11562,2104 11570,2125 11570,2151C11570,2219 11578,2224 11622,2185C11673,2139 11705,2127 11759,2135C11826,2145 11930,2209 11930,2241C11930,2279 11868,2283 11854,2245C11844,2221 11785,2190 11749,2190C11712,2190 11658,2219 11628,2253C11618,2265 11594,2302 11574,2335C11524,2421 11516,2434 11510,2440C11507,2443 11490,2463 11473,2485C11456,2507 11424,2536 11401,2550C11379,2564 11360,2578 11360,2581C11360,2587 11540,2610 11570,2608C11639,2603 11690,2638 11690,2689C11690,2731 11639,2787 11587,2801C11541,2813 11469,2805 11427,2783C11411,2775 11367,2737 11328,2699C11260,2633 11255,2630 11221,2636C11201,2640 11176,2647 11165,2653C11154,2659 11086,2663 11010,2662C10896,2661 10868,2658 10833,2640C10810,2629 10789,2620 10786,2620C10783,2620 10802,2655 10827,2698C10889,2802 10920,2870 10920,2901C10920,2932 10945,2956 10973,2952C10984,2950 11002,2953 11014,2958C11026,2964 11049,2973 11066,2980C11106,2995 11179,3066 11196,3107C11214,3149 11204,3197 11173,3217C11150,3233 11145,3232 11103,3209C11077,3196 11026,3155 10989,3118L10921,3052L10911,3083C10888,3152 10870,3265 10876,3296C10882,3327 10880,3330 10856,3330C10842,3330 10827,3322 10821,3312ZM10348,2323C10354,2314 10361,2297 10361,2286C10362,2274 10364,2256 10366,2245C10377,2183 10382,2043 10376,1978L10369,1904L10288,1904L10208,1905L10213,1950C10216,1975 10228,2038 10240,2090C10272,2233 10280,2292 10274,2327L10268,2359L10301,2350C10320,2344 10341,2332 10348,2323ZM9862,2068C9898,2040 9950,1952 9950,1919C9950,1906 9937,1901 9888,1897C9853,1894 9809,1893 9790,1895C9771,1897 9718,1900 9673,1902C9627,1903 9590,1907 9590,1910C9590,1913 9606,1924 9625,1934C9664,1955 9780,2084 9780,2106C9780,2124 9806,2112 9862,2068ZM11064,2078C11053,2047 11053,1932 11064,1891L11072,1857L11034,1863C10988,1870 10808,1887 10696,1895C10652,1898 10615,1902 10612,1905C10605,1912 10639,1960 10674,1993C10742,2056 10864,2097 10993,2099C11070,2100 11071,2100 11064,2078Z" style="fill-rule:nonzero;"/>
    </g>
</svg>
