<?xml version="1.0" encoding="UTF-8" standalone="no"?>
<!DOCTYPE svg PUBLIC "-//W3C//DTD SVG 1.1//EN" "http://www.w3.org/Graphics/SVG/1.1/DTD/svg11.dtd">
<svg width="100%" height="100%" viewBox="0 0 99 101" version="1.1" xmlns="http://www.w3.org/2000/svg" xmlns:xlink="http://www.w3.org/1999/xlink" xml:space="preserve" xmlns:serif="http://www.serif.com/" style="fill-rule:evenodd;clip-rule:evenodd;stroke-linejoin:round;stroke-miterlimit:1.41421;">
    <g transform="matrix(0.0271406,0,0,-0.0249706,-159.786,109.805)">
        <path d="M7136,4203C7132,4199 7120,4176 7110,4152C7087,4100 7084,4016 7105,3980C7128,3939 7122,3936 7083,3970C7026,4021 6947,4045 6915,4022C6897,4010 6880,3961 6880,3924C6880,3851 6932,3800 7028,3780C7054,3774 7080,3768 7087,3765C7095,3763 7090,3739 7070,3688C6977,3446 6932,3088 6956,2786C6962,2708 6970,2635 6973,2624C6977,2614 6984,2565 6990,2516C6996,2467 7014,2386 7029,2336C7045,2286 7067,2209 7078,2165C7089,2121 7108,2059 7120,2027C7132,1995 7140,1966 7137,1963C7134,1960 7114,1956 7093,1954C7035,1947 6926,1917 6918,1907C6915,1901 6907,1862 6901,1820C6884,1710 6899,1680 6982,1655C7033,1640 7038,1629 7039,1505C7040,1456 7047,1359 7055,1290C7063,1221 7076,1091 7085,1000C7094,909 7105,808 7110,775C7115,741 7124,670 7130,616C7135,563 7144,510 7150,500C7161,480 7218,465 7320,455C7356,452 7399,447 7415,445C7432,443 7483,438 7530,435C7577,432 7666,425 7729,420C7792,415 7847,413 7851,415C7855,418 7931,421 8019,422C8132,423 8183,427 8190,436C8196,442 8211,490 8225,541C8238,593 8258,662 8269,695C8280,728 8294,783 8300,818C8306,853 8327,927 8346,983C8399,1141 8408,1171 8424,1235C8441,1305 8476,1477 8485,1537C8493,1587 8501,1595 8563,1611C8632,1628 8654,1681 8643,1804C8638,1859 8633,1874 8618,1878C8608,1880 8600,1888 8600,1896C8600,1916 8567,1930 8521,1930C8499,1930 8479,1934 8475,1939C8472,1944 8478,1966 8489,1987C8524,2054 8589,2387 8620,2656C8644,2856 8648,2982 8637,3098L8628,3181L8654,3165C8717,3123 8809,3153 8904,3247C8973,3315 8978,3344 8923,3359C8869,3374 8824,3372 8788,3354C8759,3339 8757,3339 8765,3356C8790,3415 8798,3448 8793,3473C8787,3502 8734,3550 8707,3550C8689,3550 8647,3499 8629,3455L8617,3425L8608,3469C8598,3512 8555,3590 8540,3590C8521,3590 8491,3551 8475,3508C8461,3470 8458,3440 8463,3358C8467,3270 8465,3252 8451,3235C8391,3165 8250,2893 8250,2847C8250,2838 8247,2829 8242,2826C8238,2824 8236,2871 8239,2932C8246,3163 8191,3494 8115,3673C8109,3688 8115,3690 8184,3690C8271,3690 8317,3705 8348,3745C8376,3781 8376,3801 8346,3829C8327,3847 8310,3852 8270,3852C8213,3852 8215,3847 8245,3929C8260,3971 8260,3975 8243,3998C8215,4035 8173,4057 8152,4044C8143,4039 8118,4001 8097,3960C8076,3919 8058,3885 8057,3884C8056,3883 8054,3912 8053,3950C8052,4022 8027,4093 7996,4119C7971,4140 7952,4116 7929,4034C7901,3934 7904,3836 7935,3782C7963,3732 7963,3732 7896,3646C7871,3613 7837,3559 7821,3526C7769,3415 7751,3375 7737,3335C7729,3313 7716,3277 7707,3255C7691,3212 7670,3142 7651,3072C7644,3049 7635,3032 7631,3035C7626,3038 7616,3064 7610,3092C7603,3121 7574,3217 7545,3305C7516,3393 7485,3491 7476,3522C7454,3599 7364,3776 7338,3794C7317,3809 7317,3809 7364,3902C7389,3953 7413,4014 7416,4037C7422,4075 7419,4082 7392,4110C7363,4139 7328,4148 7303,4132C7296,4128 7282,4104 7271,4080C7259,4053 7249,4041 7247,4050C7244,4058 7237,4085 7230,4109C7224,4133 7205,4166 7190,4182C7161,4211 7149,4215 7136,4203Z" style="fill-rule:nonzero;"/>
    </g>
</svg>
