<?xml version="1.0" encoding="UTF-8" standalone="no"?>
<!DOCTYPE svg PUBLIC "-//W3C//DTD SVG 1.1//EN" "http://www.w3.org/Graphics/SVG/1.1/DTD/svg11.dtd">
<svg width="100%" height="100%" viewBox="0 0 99 101" version="1.1" xmlns="http://www.w3.org/2000/svg" xmlns:xlink="http://www.w3.org/1999/xlink" xml:space="preserve" xmlns:serif="http://www.serif.com/" style="fill-rule:evenodd;clip-rule:evenodd;stroke-linejoin:round;stroke-miterlimit:1.41421;">
    <g transform="matrix(0.0889627,0,0,0.0889627,77.726,49.9822)">
        <path d="M-302.554,309.82C-369.259,309.82 -424.106,319.836 -430.543,332.667L-431.177,332.667L-423.81,375.5L-418.633,377.519L-397.3,527.627C-397.741,528.37 -398.684,545.643 -398.684,546.41C-398.684,557.065 -354.921,565.702 -300.936,565.702C-246.95,565.702 -203.187,557.065 -203.187,546.41C-203.187,545.078 -204.884,529.563 -206.186,528.307L-188.15,381.062L-182.022,377.591L-174.762,332.308L-174.581,332.667C-181.019,319.836 -235.85,309.82 -302.554,309.82Z" style="fill-rule:nonzero;"/>
        <g transform="matrix(0.416405,0,0,0.416405,-495.589,20.7541)">
            <path d="M770,752.094C770,785.232 633.895,812.094 466,812.094C298.105,812.094 162,785.232 162,752.094C162,718.957 298.105,692.094 466,692.094C633.895,692.094 770,718.957 770,752.094Z" style="fill-rule:nonzero;"/>
        </g>
        <g transform="matrix(0.336241,0,0,0.336241,-457.217,82.0601)">
            <path d="M770,752.094C770,785.232 633.895,812.094 466,812.094C298.105,812.094 162,785.232 162,752.094C162,718.957 298.105,692.094 466,692.094C633.895,692.094 770,718.957 770,752.094Z" style="fill-rule:nonzero;"/>
        </g>
        <g transform="matrix(0.136966,0,0,0.131209,16.6071,317.279)">
            <path d="M-2220.46,-546.44C-2204.98,-518.48 -2204.06,-485.414 -2216.47,-456.014C-2238.9,-392.432 -2290.76,-337.178 -2287.24,-266.141C-2261.99,-207.57 -2226.2,-170.104 -2239.4,-104.179C-2265.89,-1.633 -2347.05,80.276 -2357.55,188.017C-2364.5,215.294 -2347.19,263.629 -2336.39,272.755C-2343.45,191.11 -2298.67,118.173 -2261.34,49.237C-2226.75,-11.343 -2188.69,-85.167 -2207.08,-155.315C-2219.85,-229.238 -2283.8,-257.77 -2238.84,-349.873C-2212.29,-396.236 -2183.17,-449.636 -2198.27,-504.74C-2202.48,-520.057 -2210.32,-534.252 -2220.46,-546.44Z" style="fill-rule:nonzero;"/>
            <path d="M-2220.47,-546.451C-2209.12,-525.945 -2205.61,-502.676 -2209.44,-480.139C-2205.04,-493.367 -2203.22,-507.172 -2204.16,-520.764C-2208.42,-529.99 -2213.97,-538.64 -2220.47,-546.451ZM-2196.94,-446.42C-2205.4,-418.074 -2220.49,-390.962 -2234.84,-365.889C-2242.25,-350.713 -2246.7,-337.256 -2248.91,-325.045C-2246.46,-332.8 -2243.15,-341.062 -2238.84,-349.889C-2221.81,-379.64 -2203.73,-412.282 -2196.94,-446.42ZM-2280.53,-317.732C-2285.42,-301.289 -2288.15,-284.231 -2287.25,-266.139C-2262.62,-209.025 -2228,-171.977 -2238.53,-109.045C-2237.43,-112.736 -2236.37,-116.426 -2235.41,-120.17C-2222.2,-186.094 -2257.99,-223.567 -2283.25,-282.139C-2283.86,-294.438 -2282.8,-306.254 -2280.53,-317.732ZM-2206.78,-77.076C-2217.87,-38.151 -2238.13,-0.416 -2257.34,33.236C-2284.55,83.471 -2315.7,135.837 -2327.88,192.143C-2313.78,141.87 -2285.96,94.682 -2261.34,49.236C-2239.51,10.99 -2216.31,-32.53 -2206.78,-77.076ZM-2348.91,142.58C-2353.03,157.274 -2356.04,172.378 -2357.56,188.018C-2364.51,215.295 -2347.2,263.642 -2336.41,272.768C-2337.04,265.443 -2337.25,258.174 -2337.09,250.986C-2347.46,234.849 -2359.57,195.584 -2353.56,172.018C-2352.59,161.994 -2351.01,152.194 -2348.91,142.58Z" style="fill-rule:nonzero;"/>
            <path d="M-2216.47,-544.451C-2200.99,-516.49 -2200.06,-483.413 -2212.47,-454.014C-2234.9,-390.431 -2286.77,-335.175 -2283.25,-264.139C-2257.99,-205.567 -2222.2,-168.094 -2235.41,-102.17C-2261.89,0.376 -2343.06,82.277 -2353.56,190.018C-2360.51,217.295 -2343.2,265.642 -2332.41,274.768C-2332.41,274.747 -2332.41,274.726 -2332.41,274.705C-2343.18,261.912 -2358.1,217.661 -2351.56,192.018C-2341.06,84.277 -2259.89,2.376 -2233.41,-100.17C-2220.2,-166.094 -2255.99,-203.567 -2281.25,-262.139C-2284.77,-333.175 -2232.9,-388.431 -2210.47,-452.014C-2198.29,-480.878 -2198.98,-513.288 -2213.66,-540.92C-2214.57,-542.109 -2215.51,-543.298 -2216.47,-544.451Z" style="fill-rule:nonzero;"/>
            <path d="M-2227.47,-183.357C-2224.97,-135.883 -2218.71,-85.727 -2237.39,-40.607C-2245.83,-25.68 -2258.63,-8.285 -2265.29,4.353C-2253.12,-22.74 -2228.08,-45.105 -2228.21,-76.747C-2222.54,-112.057 -2226.77,-147.865 -2227.47,-183.357Z" style="fill-rule:nonzero;"/>
            <path d="M-2243.82,-7.116C-2270.57,25.455 -2291.32,63.452 -2301.58,104.451C-2297.81,85.322 -2291.72,66.538 -2281.73,49.879C-2272.24,29.018 -2259.22,9.819 -2243.82,-7.116Z" style="fill-rule:nonzero;"/>
            <path d="M-2300.73,76.863C-2315.97,101.447 -2335.21,126.162 -2335.58,156.461C-2336.66,165.603 -2340.59,195.232 -2338.19,170.013C-2337.39,138.963 -2325.55,108.862 -2306.13,84.78C-2304.38,82.642 -2304.34,77.026 -2300.73,76.863Z" style="fill-rule:nonzero;"/>
            <path d="M-2211.48,-146.967C-2209.13,-174.464 -2219.62,-200.431 -2236.45,-221.342C-2249.14,-247.534 -2259.75,-275.917 -2261.16,-305.122C-2259,-286.173 -2255.28,-267.59 -2248.38,-249.781C-2239.84,-224.906 -2221.13,-204.701 -2213.39,-179.687C-2211,-168.99 -2210.05,-157.868 -2211.48,-146.967Z" style="fill-rule:nonzero;"/>
            <path d="M-2228.87,-379.09C-2264.43,-347.612 -2270.7,-296.29 -2266.94,-251.497C-2272.11,-296.221 -2265.42,-348.432 -2228.87,-379.09Z" style="fill-rule:nonzero;"/>
        </g>
        <g transform="matrix(0.917951,0,0,0.879372,-76.4332,301.419)">
            <path d="M-238.229,-23.954C-240.248,-21.24 -243.702,-19.082 -246.868,-18.558C-253.126,-17.522 -259.242,-20.79 -262.356,-26.835C-263.387,-28.837 -264.101,-31.615 -264.149,-33.81C-264.334,-42.382 -258.23,-49.001 -251.05,-48.015C-248.944,-47.725 -247.315,-46.98 -245.737,-45.584C-242.949,-43.118 -241.701,-39.653 -242.331,-36.126C-242.572,-34.776 -243.376,-32.747 -243.7,-32.668C-243.782,-32.648 -243.635,-33.071 -243.374,-33.608C-242.797,-34.796 -242.404,-36.711 -242.471,-38.012C-242.538,-39.342 -243.238,-41.607 -243.916,-42.694C-245.842,-45.693 -248.661,-46.116 -250.878,-45.169C-259.483,-41.493 -253.571,-22.846 -239.888,-25.219L-239.334,-25.964L-238.692,-25.557C-237.627,-24.88 -237.603,-24.795 -238.229,-23.954Z" style="fill-rule:nonzero;"/>
            <path d="M-237.656,-21.778C-240.243,-18.574 -244.612,-15.984 -248.583,-15.302C-256.432,-13.954 -264.008,-17.621 -267.766,-24.587C-269.01,-26.894 -269.841,-30.112 -269.851,-32.666C-269.889,-42.639 -262.105,-50.482 -253.148,-49.495C-250.52,-49.206 -248.5,-48.375 -246.559,-46.787C-243.127,-43.978 -241.645,-39.974 -242.512,-35.854C-242.844,-34.277 -243.895,-31.897 -244.303,-31.797C-244.405,-31.772 -244.212,-32.268 -243.873,-32.899C-243.125,-34.295 -242.59,-36.533 -242.644,-38.046C-242.699,-39.592 -243.523,-42.213 -244.347,-43.463C-246.687,-46.91 -250.203,-47.339 -252.998,-46.186C-263.841,-41.714 -256.868,-20.142 -239.703,-23.213L-238.993,-24.093L-238.2,-23.633C-236.884,-22.869 -236.855,-22.771 -237.656,-21.778Z" style="fill-rule:nonzero;"/>
        </g>
        <path d="M-312.043,565.269C-354.4,564.151 -388.3,557.817 -395.686,549.641L-397.483,547.652L-397.142,541.261C-396.954,537.746 -396.661,532.909 -396.491,530.513L-396.182,526.156L-393.333,528.035C-387.625,531.799 -378.163,534.634 -363.067,537.105C-343.149,540.366 -328.31,541.356 -298.429,541.419L-237.344,537.916L-254.236,562.935C-273.346,565.369 -292.794,565.36 -312.043,565.269Z" style="fill-rule:nonzero;"/>
        <path d="M-292.233,431.069L-413.718,410.596L-417.09,377.408C-408.281,382.922 -393.803,386.892 -370.776,390.105C-340.393,394.345 -317.808,395.317 -272.401,394.34L-188.324,381.801L-204.477,425.449C-233.429,429.833 -262.981,430.517 -292.233,431.069L-292.233,431.069Z" style="fill-rule:nonzero;"/>
        <path d="M-303.442,332.35C-303.806,332.535 -303.154,332.438 -303.442,332.35ZM-308.662,337.458C-310.642,337.997 -311.66,333.74 -313.72,333.22C-318.663,331.973 -324.768,332.917 -329.614,333.583C-336.23,334.347 -343.241,333.601 -349.539,335.972C-356.024,339.826 -363.737,339.531 -370.967,340.632C-377.138,342.304 -387.773,343.475 -391.19,345.659C-369.225,352.816 -345.936,354.467 -323.001,355.687C-290.283,356.817 -257.225,355.951 -225.065,349.35C-222.071,348.477 -212.244,346.709 -213.926,345.69C-220.361,345.572 -226.721,343.999 -231.689,339.762C-237.258,335.679 -241.759,343.631 -247.325,342.821C-252.398,341.411 -254.367,333.056 -260.918,335.983C-266.207,338.464 -271.921,338.207 -276.788,335.044C-281.538,335.729 -286.451,337.221 -291.433,336.681C-294.212,336.666 -298.121,331.658 -300.666,332.289C-303.879,333.086 -305.67,339.403 -308.662,337.458ZM-303.252,332.572L-303.268,332.667L-303.252,332.572ZM-306.298,332.968L-306.282,333L-306.298,332.968ZM-306.124,333.032L-306.156,333.064L-306.124,333.032ZM-317.452,333.302L-315.453,333.095L-317.452,333.302ZM-302.157,333.048L-302.221,333.063L-302.157,333.048ZM-304.141,333.381L-304.093,333.413L-304.141,333.381ZM-306.267,333.492L-306.156,333.492L-306.267,333.492ZM-304.807,333.492L-304.839,333.555L-304.807,333.492ZM-275.63,333.619L-275.487,333.619L-275.63,333.619ZM-304.918,333.682L-304.823,333.698L-304.918,333.682ZM-304.521,333.746C-305.101,334.274 -303.578,333.845 -304.521,333.746ZM-369.999,337.585C-368.223,340.521 -368.126,340.681 -369.999,337.585ZM-374.917,341.234L-374.87,341.25L-374.917,341.234ZM-375.52,341.456L-375.52,341.567L-375.52,341.456ZM-376.139,341.647L-376.139,341.694L-376.139,341.647Z" style="fill-rule:nonzero;"/>
        <path d="M-331.27,341.893C-337.557,339.519 -339.064,347.056 -332.151,346.494C-326.493,349.912 -318.205,345.651 -326.171,341.409L-326.962,341.893" style="fill-rule:nonzero;"/>
        <path d="M-301.516,335.38C-302.398,337.149 -304.381,341.892 -300.259,344.699C-297.476,346.594 -292.795,344.699 -291.144,342.933C-290.261,337.41 -298.453,332.676 -301.516,335.38Z" style="fill-rule:nonzero;"/>
        <path d="M-257.377,337.026C-260.275,340.494 -257.788,343.644 -254.653,345.387C-250.646,347.614 -245.58,347.545 -249.331,342.91C-251.461,340.837 -254.724,334.468 -257.377,337.026Z" style="fill-rule:nonzero;"/>
        <path d="M-269.26,338.662C-268.735,337.611 -270.667,350.441 -277.641,345.886C-281.765,341.928 -276.515,340.036 -274.232,337.418" style="fill-rule:nonzero;"/>
        <path d="M-309.012,350.15C-316.366,353.579 -302.452,356.496 -298.729,354.578C-293.84,354.8 -289.808,353.342 -295.953,350.74C-297.662,347.928 -308.871,347.316 -302.883,346.027" style="fill-rule:nonzero;"/>
        <path d="M-231.109,345.842C-231.084,343.691 -232.44,350.983 -229.199,347.686C-221.605,349.467 -228.681,342.06 -231.109,345.842Z" style="fill-rule:nonzero;"/>
        <path d="M-230.675,341.708C-230.15,340.657 -232.082,353.488 -239.056,348.932C-243.179,344.974 -237.93,343.082 -235.647,340.465" style="fill-rule:nonzero;"/>
        <g transform="matrix(-0.127962,-0.0253838,-0.0264975,0.122584,-429.673,239.405)">
            <path d="M-1154.83,255.793C-1157.61,243.593 -1171.55,214.73 -1187.65,196.079C-1207.24,173.393 -1238.65,147.214 -1276.52,122C-1313.21,97.575 -1341.44,77.476 -1358.64,63.522C-1402.57,27.879 -1428.81,-10.548 -1433.97,-46.805C-1435.86,-60.105 -1434.99,-70.613 -1432.38,-73.775C-1431.75,-74.546 -1431.53,-72.984 -1431.89,-70.305C-1433.45,-58.796 -1429.69,-40.859 -1424.87,-28.568C-1409.89,9.595 -1279.86,32.668 -1217.27,74.09C-1156.47,114.331 -1213.44,158.598 -1188.8,186.633C-1168.05,210.244 -1150.36,241.352 -1150.48,254C-1150.51,257.457 -1150.79,257.883 -1151.37,255.352L-1151.37,255.352L-1151.37,255.352L-1154.83,255.793Z" style="fill-rule:nonzero;"/>
            <path d="M-1420.55,-14.44C-1432.42,-10.746 -1357.58,140.043 -1311.32,179.796C-1261.88,221.289 -1228.98,180 -1199.44,182.142C-1198.42,179.579 -1194.14,184.963 -1192.69,182.726C-1213.89,167.857 -1242.13,141.742 -1270.06,118.428C-1327.56,83.091 -1370.9,36.402 -1414.69,-11.533C-1417.51,-13.891 -1419.43,-14.788 -1420.55,-14.44Z" style="fill-rule:nonzero;"/>
        </g>
        <g transform="matrix(0.106108,0.00641388,-0.00669526,0.101649,-113.231,263.694)">
            <path d="M-1618.69,2.156C-1619.74,-11.034 -1630.61,-47.322 -1644.61,-69.298C-1661.63,-96.027 -1690.49,-128.217 -1726.27,-160.386C-1760.93,-191.548 -1787.39,-216.889 -1803.26,-234.118C-1843.78,-278.124 -1865.36,-322.34 -1865.22,-361.064C-1865.17,-375.269 -1861.21,-396.026 -1858,-398.936C-1857.21,-399.646 -1857.22,-397.978 -1858.01,-395.229C-1861.4,-383.426 -1861.65,-354.189 -1858.48,-340.592C-1848.65,-298.373 -1733.09,-255.833 -1673.92,-202.929C-1616.45,-151.534 -1665.86,-112.455 -1644.37,-79.357C-1626.26,-51.482 -1610.04,-15.914 -1612.1,-2.699C-1612.66,0.913 -1615.48,1.001 -1615.7,-1.736L-1615.7,-1.736L-1612.32,-3.084L-1618.69,2.156Z" style="fill-rule:nonzero;"/>
            <path d="M-1856.12,-325.15C-1869.11,-323.099 -1809.02,-159.251 -1766.68,-110.588C-1721.29,-59.62 -1685.38,-92.435 -1654.81,-85.681C-1653.36,-88.207 -1652.67,-85.062 -1650.81,-87.181C-1670.72,-105.978 -1698.4,-134.208 -1724.06,-162.869C-1778.82,-208.627 -1811.95,-264.368 -1850.43,-321.213C-1853.02,-324.11 -1854.9,-325.343 -1856.12,-325.15Z" style="fill-rule:nonzero;"/>
        </g>
    </g>
</svg>
