<?xml version="1.0" standalone="no"?>
<!DOCTYPE svg PUBLIC "-//W3C//DTD SVG 20010904//EN"
 "http://www.w3.org/TR/2001/REC-SVG-20010904/DTD/svg10.dtd">
<svg version="1.0" xmlns="http://www.w3.org/2000/svg"
 width="118" height="128" viewBox="0 0 1188.000000 1280.000000"
 preserveAspectRatio="xMidYMid meet">
<g transform="translate(0.000000,1280.000000) scale(0.100000,-0.100000)"
fill="#000000" stroke="none">
<path d="M8260 12794 c-14 -2 -56 -9 -95 -15 -389 -61 -835 -310 -1090 -609
-219 -256 -315 -518 -284 -774 27 -222 125 -402 321 -592 186 -180 445 -343
746 -470 113 -48 114 -48 108 -78 -4 -16 -7 -30 -9 -31 -1 -2 -60 7 -132 18
-180 28 -654 31 -790 5 -450 -85 -716 -302 -817 -665 -19 -67 -22 -105 -22
-268 -1 -164 2 -204 22 -294 34 -151 76 -269 149 -421 222 -463 595 -799 973
-876 159 -32 356 -9 506 60 214 98 440 323 606 603 23 40 44 71 45 69 6 -5
-87 -248 -132 -348 -146 -319 -300 -544 -782 -1150 -319 -401 -520 -681 -653
-911 -25 -42 -48 -77 -51 -77 -3 0 -18 42 -34 93 -44 140 -89 249 -107 261
-14 8 -30 -2 -85 -54 -272 -259 -432 -480 -514 -711 l-23 -67 -28 37 c-56 71
-184 194 -275 262 -164 124 -407 267 -435 257 -19 -8 -36 -147 -45 -365 -3
-84 -8 -153 -9 -153 -2 0 -52 33 -111 74 -142 96 -232 148 -503 291 -656 344
-755 408 -983 638 -125 124 -158 171 -80 110 63 -49 143 -90 243 -124 91 -32
101 -33 245 -33 172 0 242 15 402 85 577 253 1058 1026 993 1596 -48 423 -325
694 -830 813 -174 40 -297 52 -575 56 l-270 3 -3 30 c-3 26 1 30 30 36 61 14
302 97 398 137 485 204 762 458 866 793 15 48 19 92 19 220 0 147 -3 167 -28
247 -69 218 -177 394 -357 582 -369 384 -915 614 -1325 556 -398 -56 -666
-336 -780 -815 -45 -189 -59 -322 -59 -592 l-1 -251 -29 -6 c-16 -4 -30 -5
-31 -4 -1 2 -14 44 -29 93 -231 761 -594 1178 -1066 1221 -200 19 -455 -63
-684 -219 -103 -70 -289 -245 -379 -357 -258 -320 -412 -734 -394 -1060 27
-460 335 -764 887 -874 176 -35 311 -46 561 -46 l217 0 6 -26 c4 -15 5 -28 3
-30 -1 -2 -77 -28 -168 -58 -397 -132 -664 -279 -866 -477 -129 -125 -218
-276 -259 -434 -26 -100 -24 -282 4 -396 127 -522 705 -1035 1314 -1166 62
-14 125 -18 253 -17 155 0 178 3 258 27 152 47 265 116 369 224 182 191 293
489 331 884 l12 134 29 -80 c153 -423 403 -812 677 -1054 229 -203 336 -269
956 -595 301 -158 561 -314 503 -302 -141 29 -451 32 -664 6 -119 -14 -120
-19 -52 -139 64 -113 188 -305 219 -339 l20 -22 -836 0 -837 0 0 -540 0 -540
280 0 c154 0 280 -4 280 -8 0 -5 81 -479 180 -1053 99 -574 244 -1411 321
-1859 77 -448 142 -827 145 -842 l6 -28 2033 0 2034 0 10 53 c6 28 153 878
327 1887 173 1009 318 1838 320 1842 3 5 158 8 345 8 l339 0 0 540 0 540 -961
0 -961 0 26 35 c118 155 214 354 307 643 39 121 36 139 -27 134 -281 -21 -555
-83 -739 -168 -80 -36 -202 -110 -244 -148 l-24 -21 7 100 c7 99 8 101 76 230
181 344 356 604 714 1055 438 553 533 681 671 905 91 147 202 368 256 509 24
64 46 116 49 116 3 0 6 -37 8 -83 9 -258 81 -510 193 -681 201 -306 558 -439
986 -366 446 76 898 345 1160 690 76 100 163 272 195 385 31 108 33 326 4 425
-111 375 -460 690 -1049 945 -111 48 -122 55 -119 77 2 12 7 26 10 29 4 4 63
-1 132 -11 379 -56 758 -39 1016 45 317 104 529 325 606 632 32 126 31 374 0
521 -95 439 -355 862 -682 1108 -101 77 -274 165 -385 196 -106 30 -324 32
-425 4 -256 -70 -494 -268 -700 -581 -94 -142 -167 -283 -278 -537 -20 -47
-21 -47 -52 -37 -21 8 -29 16 -26 28 3 9 13 77 23 151 25 186 25 614 1 745
-86 460 -308 731 -678 824 -82 21 -324 37 -390 25z"/>
</g>
</svg>
