<?xml version="1.0" encoding="UTF-8" standalone="no"?>
<!DOCTYPE svg PUBLIC "-//W3C//DTD SVG 1.1//EN" "http://www.w3.org/Graphics/SVG/1.1/DTD/svg11.dtd">
<svg width="100%" height="100%" viewBox="0 0 99 101" version="1.1" xmlns="http://www.w3.org/2000/svg" xmlns:xlink="http://www.w3.org/1999/xlink" xml:space="preserve" xmlns:serif="http://www.serif.com/">
    <g transform="matrix(0.159898,0,0,0.171773,5,2.50203)">
        <path d="M266.43,94.513C265.943,98.041 264.46,101.226 262.251,103.808C337.422,167.599 363.461,108.226 266.43,94.513Z" fill="rgb(144,0,159);fill-rule:nonzero;"/>
        <path d="M261.735,106.189C261.439,105.874 261.199,105.577 260.903,105.271C260.893,105.281 260.874,105.29 260.865,105.3C261.162,105.615 261.439,105.874 261.735,106.189Z" fill="rgb(144,0,159)"/>
        <path d="M248.663,73.877C248.663,73.418 248.644,72.997 248.654,72.528C248.654,72.997 248.625,73.408 248.615,73.867C248.625,73.877 248.644,73.877 248.663,73.877Z" fill="rgb(144,0,159)"/>
        <path d="M266.66,91.855C266.66,91.874 266.67,91.893 266.67,91.903C267.129,91.893 267.55,91.874 268.018,91.864C267.54,91.874 267.119,91.855 266.66,91.855Z" fill="rgb(144,0,159);"/>
        <path d="M246.292,74.078C234.014,-23.842 179.679,-1.6 237.714,77.473C240.172,75.646 243.098,74.47 246.292,74.078Z" fill="rgb(144,0,159);"/>
        <path d="M263.103,81.327C264.958,83.851 266.134,86.854 266.488,90.134C364.417,79.356 342.347,23.607 263.103,81.327Z" fill="rgb(144,0,159);"/>
        <path d="M262.979,78.812C262.596,79.166 262.233,79.462 261.851,79.807C261.86,79.826 261.87,79.835 261.889,79.855C262.261,79.5 262.586,79.156 262.979,78.812Z" fill="rgb(144,0,159);"/>
        <path d="M235.218,104.41C234.903,104.706 234.625,104.993 234.31,105.3C234.635,105.004 234.932,104.745 235.257,104.449C235.237,104.429 235.228,104.42 235.218,104.41Z" fill="rgb(144,0,159);"/>
        <path d="M228.974,91.845C229.442,91.845 229.854,91.883 230.313,91.883C230.313,91.864 230.313,91.845 230.322,91.835C229.854,91.835 229.433,91.855 228.974,91.845Z" fill="rgb(144,0,159);"/>
        <path d="M230.504,89.961C230.925,86.385 232.359,83.152 234.54,80.513C159.521,18.989 133.598,78.267 230.504,89.961Z" fill="rgb(144,0,159);"/>
        <path d="M250.624,74.078C254.201,74.499 257.423,75.943 260.053,78.132C321.826,3.086 262.529,-22.857 250.624,74.078Z" fill="rgb(144,0,159);"/>
        <path d="M233.812,102.708C232.043,100.279 230.905,97.401 230.523,94.274C132.173,106.734 153.077,160.982 233.812,102.708Z" fill="rgb(144,0,159);"/>
        <path d="M236.299,78.639C235.945,78.247 235.601,77.912 235.237,77.52C235.601,77.912 235.897,78.285 236.251,78.677C236.271,78.659 236.29,78.649 236.299,78.639Z" fill="rgb(144,0,159);"/>
        <path d="M240.095,93.241C240.296,94.609 240.783,95.823 241.549,96.904C241.74,97.172 241.883,97.468 242.094,97.716C242.19,97.821 242.238,97.974 242.333,98.07C242.553,98.299 242.849,98.424 243.098,98.625C244.255,99.572 245.651,100.174 247.191,100.413C247.583,100.471 247.937,100.642 248.348,100.642C248.396,100.642 248.434,100.671 248.482,100.671C248.587,100.671 248.664,100.613 248.769,100.613C249.046,100.604 249.285,100.489 249.553,100.451C250.949,100.269 252.201,99.763 253.311,98.997C253.588,98.796 253.904,98.653 254.162,98.423C254.267,98.327 254.411,98.279 254.516,98.184C254.736,97.964 254.86,97.677 255.051,97.438C255.998,96.281 256.591,94.894 256.84,93.355C256.907,92.954 257.079,92.581 257.079,92.16C257.079,92.122 257.108,92.084 257.108,92.045C257.108,91.94 257.051,91.844 257.051,91.739C257.041,91.471 256.926,91.242 256.898,90.984C256.716,89.55 256.2,88.278 255.397,87.15C255.234,86.921 255.11,86.663 254.918,86.452C254.822,86.347 254.775,86.203 254.679,86.098C254.411,85.821 254.076,85.649 253.78,85.4C252.604,84.463 251.208,83.86 249.639,83.641C249.333,83.602 249.065,83.469 248.75,83.459C248.654,83.459 248.568,83.401 248.473,83.401C248.425,83.401 248.377,83.43 248.329,83.43C247.966,83.44 247.65,83.583 247.306,83.64C245.91,83.841 244.667,84.348 243.567,85.132C243.347,85.285 243.108,85.409 242.898,85.581C242.793,85.677 242.64,85.725 242.544,85.82C242.257,86.088 242.075,86.432 241.836,86.738C240.899,87.914 240.296,89.32 240.086,90.879C240.047,91.166 239.923,91.424 239.914,91.73C239.914,91.835 239.857,91.921 239.857,92.026C239.857,92.074 239.885,92.112 239.885,92.16C239.885,92.553 240.047,92.878 240.095,93.241Z" fill="rgb(144,0,159);"/>
        <path d="M495.338,195.522C594.787,152.682 522.236,80.829 479.951,180.279C522.246,80.829 411.847,80.829 456.533,180.279C411.847,80.829 342.338,152.681 441.787,195.522C342.338,152.682 342.338,263.071 441.787,218.94C342.338,263.071 411.848,333.278 456.533,233.829C438.011,275.053 446.148,299.131 459,306.179L459,345.748C453.884,338.768 447.659,335.928 441.367,335.105C430.332,333.651 414.18,342.085 395.467,329.616C397.245,377.514 438.9,391.265 451.523,383.204C454.459,381.33 456.925,379.504 459.001,377.811L459.001,407.866L325.125,407.866L325.125,399.413C326.817,399.891 328.587,400.359 330.69,400.752C342.298,402.903 368.643,380.518 355.753,345.012C346.286,358.926 332.984,358.438 325.124,362.053L325.124,347.728C330.661,340.709 332.822,326.93 325.124,306.409L325.124,305.749C354.376,368.384 401.012,321.479 333.97,291.721C402.341,322.063 402.341,246.166 333.97,275.618C402.341,246.166 352.463,196.766 323.394,265.138C352.473,196.766 276.576,196.766 307.29,265.138C276.565,196.766 228.782,246.166 297.153,275.618C279.702,268.102 266.725,267.471 258.186,270.167L258.186,147.547C275.962,200.533 308.045,175.087 259.085,106.763C258.789,106.973 258.492,107.184 258.186,107.375C255.9,108.829 253.261,110.33 250.44,110.636C249.837,110.713 249.254,111.43 248.642,111.43C248.623,111.43 248.604,111.43 248.594,111.43C248.556,111.43 248.527,110.847 248.489,110.847C247.657,110.847 246.873,110.407 246.07,110.302C243.527,109.958 241.164,108.973 239.07,107.692C238.247,107.185 237.483,106.535 236.756,105.913C181.265,171.55 219.496,199.568 239.07,141.046L239.07,407.868L124.31,407.868L124.31,366.539C126.71,368.69 129.828,371.119 133.787,373.643C146.41,381.705 188.064,367.954 189.842,320.055C171.128,332.525 154.977,324.09 143.942,325.544C136.799,326.481 129.751,330.058 124.31,339.323L124.31,304.639C135.929,296.024 142.565,272.471 126.136,233.829C168.431,333.279 240.972,263.071 141.522,218.94C240.972,263.081 240.972,152.682 141.522,195.522C240.972,152.682 168.421,80.829 126.136,180.279C168.431,80.829 58.032,80.829 102.718,180.279C58.032,80.829 -11.477,152.681 87.973,195.522C-11.477,152.682 -11.477,263.071 87.973,218.94C-11.477,263.071 58.033,333.278 102.718,233.829C84.196,275.053 92.333,299.131 105.185,306.179L105.185,327.972C102.555,326.691 99.849,325.897 97.114,325.543C86.079,324.089 69.928,332.523 51.214,320.054C52.906,365.629 90.65,380.241 105.185,374.608L105.185,407.867L19.125,407.867C8.559,407.867 0,416.425 0,426.992L0,541.742C0,552.308 8.559,560.867 19.125,560.867L516.375,560.867C526.941,560.867 535.5,552.308 535.5,541.742L535.5,426.992C535.5,416.426 526.941,407.867 516.375,407.867L478.125,407.867L478.125,304.639C489.743,296.024 496.38,272.471 479.951,233.829C522.246,333.279 594.787,263.071 495.338,218.94C594.787,263.071 594.787,152.682 495.338,195.522ZM101.2,206.796C101.2,199.395 107.205,193.389 114.607,193.389C122.009,193.389 128.014,199.394 128.014,206.796C128.014,214.198 122.009,220.203 114.607,220.203C107.205,220.203 101.2,214.207 101.2,206.796ZM323.451,283.296C323.451,287.733 319.856,291.329 315.419,291.329C310.982,291.329 307.387,287.733 307.387,283.296C307.387,278.859 310.983,275.264 315.419,275.264C319.856,275.264 323.451,278.869 323.451,283.296ZM258.188,297.688C266.727,300.269 279.704,299.466 297.155,291.72C229.73,321.642 275.266,368.918 306.001,304.639L306.001,305.07C296.419,328.212 299.384,343.014 306.001,349.459L306.001,407.867L258.189,407.867L258.189,297.688L258.188,297.688ZM487.688,426.992C498.254,426.992 506.813,435.551 506.813,446.117C506.813,456.683 498.254,465.242 487.688,465.242L47.812,465.242C37.246,465.242 28.687,456.683 28.687,446.117C28.687,435.551 37.246,426.992 47.812,426.992L105.187,426.992L105.187,455.68L124.312,455.68L124.312,426.992L239.062,426.992L239.062,455.68L258.187,455.68L258.187,426.992L306,426.992L306,455.68L325.125,455.68L325.125,426.992L459,426.992L459,455.68L478.125,455.68L478.125,426.992L487.688,426.992ZM468.429,220.212C461.028,220.212 455.023,214.207 455.023,206.805C455.023,199.403 461.028,193.398 468.429,193.398C475.83,193.398 481.835,199.403 481.835,206.805C481.835,214.207 475.83,220.212 468.429,220.212Z" fill="rgb(144,0,159);"/>
    </g>
</svg>
