<?xml version="1.0" encoding="utf-8"?>
<!-- Generator: Adobe Illustrator 16.0.0, SVG Export Plug-In . SVG Version: 6.00 Build 0)  -->
<!DOCTYPE svg PUBLIC "-//W3C//DTD SVG 1.1//EN" "http://www.w3.org/Graphics/SVG/1.1/DTD/svg11.dtd">
<svg version="1.1" id="Layer_1" xmlns="http://www.w3.org/2000/svg" xmlns:xlink="http://www.w3.org/1999/xlink" x="0px" y="0px"
	 width="251.5px" height="151.797px" viewBox="0 50.96 251.5 151.797" enable-background="new 0 50.96 251.5 151.797"
	 xml:space="preserve">
<g>
	<path fill="#414E93" d="M156.915,123.091l-4.954,57.57c0,0,0.91,5.918-4.61,7.02c-2.574,0.516-6.058,1-9.052,1.373l-6.563,1.295
		l-3.575-35.416"/>
	<path fill="#515BA7" d="M98.037,170.9v21.457c0,0,0.625,5.525,24.02,5.525c17.271,0,16.242-5.525,16.242-5.525V171.74v-14.209"/>
	<path fill="#414E93" d="M84.891,171.177l-0.012,23.131c0,0,1.029,5.523-16.244,5.523c-6.386,0-11.074-0.41-14.519-1.008
		c0,0-3.285,1.314-3.448-12.678c-0.162-13.994,1.299-14.969,1.299-14.969"/>
	<path fill="#515BA7" d="M185.827,117.015c-1.743-2.301-4.251-3.613-7.08-3.902c-2.971-0.305-5.791,0.297-8.728,0.582
		c-0.931,0.09-1.865,0.121-2.8,0.098c-1.105-0.027-2.209-0.373-3.314-0.154c-1.178,0.23-2.353,0.703-3.139,1.646
		c-0.877,1.051-1.313,2.492-1.67,3.787c-0.736,2.684-1.021,5.412-1.32,8.166c-0.166,1.537-0.386,3.08-0.72,4.592
		c-2.644,11.945-9.158,24.416-20.219,30.561c-10.045,5.578-22.66,6.203-33.799,7.814c-10.875,1.574-21.251,2.703-32.84,3.582
		c-11.006,0.834-22.313,2.141-33.351,1.561c-4.449-0.234-8.958-0.869-13.157-2.404c-8.162-2.988-15.209-8.658-19.423-16.322
		c-0.433-0.783-0.826-1.584-1.185-2.396l0.731,0.164l7.388,1.684c111.943,28.594,99.637-56.37,99.637-56.37
		c-0.199-3.895-5.304-14.826-5.532-19.02"/>
	<path fill="#515BA7" d="M11.203,165.402l3.63,29.881c0,0,0.975,7.475,22.094,7.475s18.169-7.475,18.169-7.475l0.084-20.299"/>
	<path fill="#515BA7" d="M105.308,80.683c15.91,0.39,29.585-7.724,43.087-14.982c20.357-10.944,44.906-19.659,67.887-11.585
		c17.267,6.066,33.712,23.256,35.219,41.815c1.338,16.477-7.423,35.438-20.76,45.219c-6.279,4.605-17.459,8.994-25.441,7.936
		c-9.479-1.258-23.766-10.271-28.848-17.914c-3.07-4.619-4.723-8.975-6.549-13.977c-0.586-1.605-2.229-3.359-4.021-3.533"/>
	<g>
		<path fill="#1B1D4B" d="M214.239,94.664c-1.932,1.371-4.667,0.994-6.108-0.842c-1.445-1.837-1.05-4.437,0.882-5.807
			c1.933-1.371,4.667-0.996,6.112,0.841C216.567,90.692,216.17,93.294,214.239,94.664z"/>
	</g>
	<path fill="#1B1D4B" d="M110.18,87.495c0.229,4.193,0.461,8.313,0.66,12.207c0,0,12.307,84.963-99.637,56.37l-7.388-1.684
		l-0.731-0.164c-3.479-7.896-3.58-17.016-2.421-25.447c1.263-9.195,4.108-18.268,8.581-26.414
		c4.662-8.495,11.193-16.032,19.33-21.358c8.666-5.669,18.578-8.086,28.7-9.583c1.201-0.177,2.481-0.499,3.695-0.527
		c3.944-0.095,7.96,0.021,11.89,0.369c9.787,0.864,20.633,2.778,29.35,7.524C105.569,80.619,109.694,83.331,110.18,87.495"/>
	<path fill="#294086" d="M199.991,106.468c0.141-2.563,3.439-5.946,3.439-5.946s2.909,3.69,2.77,6.254h-0.005
		c-0.08,0.703-0.417,1.381-1.007,1.893c-1.273,1.105-3.239,1.012-4.39-0.211c-0.533-0.566-0.798-1.277-0.802-1.988"/>
</g>
</svg>
