<?xml version="1.0" encoding="UTF-8" standalone="no"?>
<!DOCTYPE svg PUBLIC "-//W3C//DTD SVG 1.1//EN" "http://www.w3.org/Graphics/SVG/1.1/DTD/svg11.dtd">
<svg width="100%" height="100%" viewBox="0 0 39 40" version="1.1" xmlns="http://www.w3.org/2000/svg" xmlns:xlink="http://www.w3.org/1999/xlink" xml:space="preserve" xmlns:serif="http://www.serif.com/" style="fill-rule:evenodd;clip-rule:evenodd;stroke-linejoin:round;stroke-miterlimit:1.41421;">
    <g transform="matrix(0.00235521,0,0,-0.0028849,4.42666,31.8799)">
        <path d="M-1,7288C-1,7203 99,6274 397,3587L795,0L12005,0L12403,3588C12701,6274 12801,7203 12801,7288L12800,7400L12628,7399L12455,7399L10971,5544C9948,4265 9484,3693 9476,3699C9470,3704 8801,4539 7990,5554L6515,7399L6400,7399L6285,7399L4810,5554C3999,4539 3330,3704 3324,3699C3316,3693 2852,4265 1829,5544L345,7399L173,7399L0,7400L-1,7288Z" style="fill-rule:nonzero;"/>
    </g>
</svg>
