<?xml version="1.0" encoding="iso-8859-1"?>
<!-- Generator: Adobe Illustrator 19.0.0, SVG Export Plug-In . SVG Version: 6.00 Build 0)  -->
<svg xmlns="http://www.w3.org/2000/svg"  version="1.1" id="Layer_1" x="0px" y="0px" viewBox="0 0 297 297" style="enable-background:new 0 0 297 297;" xml:space="preserve" width="15px" height="15px">
<g>
	<g>
		<g>
			<path d="M102.907,54.358c5.425,0,9.824-4.399,9.824-9.824V9.824c0-5.425-4.399-9.824-9.824-9.824s-9.824,4.399-9.824,9.824     v34.711C93.083,49.959,97.482,54.358,102.907,54.358z" fill="#ff7d45"/>
			<path d="M61.561,71.712c5.425,0,9.824-4.399,9.824-9.824v-34.71c0-5.425-4.399-9.824-9.824-9.824     c-5.425,0-9.824,4.399-9.824,9.824v34.71C51.738,67.314,56.136,71.712,61.561,71.712z" fill="#ff7d45"/>
			<path d="M148.336,71.712c5.425,0,9.824-4.399,9.824-9.824v-34.71c0-5.425-4.399-9.824-9.824-9.824s-9.824,4.399-9.824,9.824     v34.71C138.512,67.314,142.911,71.712,148.336,71.712z" fill="#ff7d45"/>
			<path d="M17.355,268.627c0,15.645,12.728,28.373,28.373,28.373h114.357c15.645,0,28.373-12.728,28.373-28.373v-0.348H17.355     V268.627z" fill="#ff7d45"/>
			<path d="M241.704,113.523h-37.527v19.647h37.527c10.087,0,18.294,8.206,18.294,18.294v55.858     c0,10.087-8.206,18.294-18.294,18.294h-37.527v19.647h37.527c20.92,0,37.941-17.02,37.941-37.941v-55.858     C279.645,130.543,262.624,113.523,241.704,113.523z" fill="#ff7d45"/>
			<path d="M181.792,104.458H24.022c-3.682,0-6.667,2.985-6.667,6.667v141.436h171.104V111.125     C188.459,107.443,185.474,104.458,181.792,104.458z" fill="#ff7d45"/>
		</g>
	</g>
</g>
<g>
</g>
<g>
</g>
<g>
</g>
<g>
</g>
<g>
</g>
<g>
</g>
<g>
</g>
<g>
</g>
<g>
</g>
<g>
</g>
<g>
</g>
<g>
</g>
<g>
</g>
<g>
</g>
<g>
</g>
</svg>
